<svg width="649" height="374" viewBox="0 0 649 374" fill="none" xmlns="http://www.w3.org/2000/svg">
<path fill-rule="evenodd" clip-rule="evenodd" d="M309.632 0.311134C309.524 0.486306 308.251 0.739375 306.804 0.873922C305.356 1.00847 303.883 1.27533 303.531 1.46727C303.178 1.65922 302.261 1.91676 301.492 2.03975C300.723 2.16274 300.094 2.42326 300.094 2.61894C300.094 2.81461 299.706 2.97487 299.232 2.97487C298.758 2.97487 297.501 3.39417 296.439 3.90664C295.376 4.41911 294.255 4.83841 293.946 4.83841C293.638 4.83841 293.385 4.98786 293.385 5.17086C293.385 5.35349 292.966 5.60842 292.454 5.737C291.941 5.86559 291.522 6.13543 291.522 6.33631C291.522 6.53758 291.276 6.70194 290.975 6.70194C290.284 6.70194 287.766 7.85659 287.116 8.4723C286.845 8.72872 286.384 8.93818 286.091 8.93818C285.798 8.93818 285.559 9.08652 285.559 9.26728C285.559 9.44842 285.265 9.69515 284.906 9.81553C284.199 10.0533 282.876 10.8491 282.577 11.2173C282.474 11.3436 282.013 11.5643 281.552 11.7085C281.091 11.8524 280.713 12.1263 280.713 12.3175C280.713 12.5087 280.552 12.6653 280.353 12.6653C280.155 12.6653 279.479 13.1684 278.85 13.7834C278.221 14.3983 277.586 14.903 277.439 14.9049C277.293 14.9063 276.555 15.4934 275.8 16.2093C275.045 16.9249 274.248 17.5104 274.03 17.5104C273.811 17.5104 273.632 17.762 273.632 18.0695C273.632 18.377 273.447 18.6286 273.22 18.6286C272.402 18.6286 257.993 33.0136 257.972 33.8525C257.969 33.9863 257.198 34.9345 256.26 35.9594C255.322 36.9844 253.983 38.4499 253.284 39.2158C252.586 39.9821 252.012 40.7368 252.009 40.893C252.006 41.0495 251.545 41.6973 250.984 42.3331C248.86 44.7423 247.347 46.7005 247.088 47.3743C246.941 47.7582 246.648 48.0724 246.436 48.0724C246.225 48.0724 246.052 48.3098 246.052 48.6005C246.052 48.8909 245.916 49.1842 245.75 49.2528C245.585 49.321 244.925 50.1316 244.284 51.0541C243.643 51.9765 242.689 53.2184 242.163 53.8143C241.637 54.4099 241.206 55.0301 241.206 55.1926C241.206 55.3551 240.787 55.9406 240.275 56.4937C239.762 57.0465 239.343 57.714 239.343 57.9764C239.343 58.2391 238.946 58.7661 238.461 59.1474C237.977 59.529 237.472 60.1824 237.339 60.5998C237.207 61.0169 236.807 61.6855 236.45 62.0851C236.094 62.485 235.224 63.6467 234.517 64.6668C233.81 65.6869 233.12 66.6053 232.983 66.7078C232.847 66.8103 232.617 67.2713 232.473 67.7327C232.329 68.1941 232.055 68.5713 231.864 68.5713C231.673 68.5713 231.516 68.8229 231.516 69.1304C231.516 69.4378 231.359 69.6894 231.168 69.6894C230.977 69.6894 230.727 69.9831 230.613 70.3417C230.499 70.7002 230.026 71.4132 229.56 71.9257C229.095 72.4381 228.5 73.2767 228.237 73.7892C227.382 75.4582 226.802 76.3806 226.172 77.0772C225.832 77.4533 225.553 77.9438 225.553 78.1666C225.553 78.3899 225.42 78.628 225.257 78.6966C225.095 78.7648 224.578 79.4499 224.109 80.2184C223.64 80.9873 223.121 81.616 222.956 81.616C222.791 81.616 222.373 82.1609 222.027 82.8273C220.736 85.3144 218.496 88.6975 218.14 88.6975C218.012 88.6975 217.668 89.2424 217.374 89.9088C217.08 90.5752 216.62 91.3418 216.351 91.6124C216.082 91.8834 215.862 92.3448 215.862 92.6374C215.862 92.9303 215.653 93.1744 215.396 93.1796C215.14 93.1849 214.641 93.8136 214.286 94.5773C213.931 95.3406 213.219 96.4524 212.702 97.0483C212.185 97.6439 211.763 98.3566 211.763 98.6324C211.763 98.9078 211.595 99.1333 211.39 99.1333C211.185 99.1333 211.017 99.367 211.017 99.6525C211.017 99.9379 210.766 100.268 210.458 100.386C210.151 100.504 209.899 100.941 209.899 101.358C209.899 101.774 209.727 102.115 209.517 102.115C209.307 102.115 208.976 102.534 208.781 103.047C208.586 103.559 208.275 103.978 208.09 103.978C207.905 103.978 207.545 104.482 207.29 105.097C207.036 105.712 206.718 106.215 206.584 106.215C206.451 106.215 206.025 106.802 205.639 107.519C205.253 108.237 204.799 108.824 204.63 108.824C204.462 108.824 203.981 109.495 203.563 110.314C203.145 111.134 202.638 111.805 202.437 111.805C202.237 111.805 202.072 111.98 202.072 112.194C202.072 112.605 202 112.708 200.222 114.836C199.6 115.581 199.091 116.302 199.091 116.438C199.091 116.574 198.671 117.075 198.159 117.549C197.646 118.025 197.227 118.612 197.227 118.855C197.227 119.694 194.472 121.865 193.407 121.867C192.843 121.868 192.381 121.994 192.379 122.148C192.378 122.302 190.919 122.481 189.138 122.547C187.358 122.613 185.221 122.905 184.389 123.194C183.558 123.484 182.458 123.728 181.946 123.737C180.34 123.764 177.133 125.014 175.785 126.137C174.547 127.171 174.492 127.32 174.504 129.667C174.522 133.362 174.553 133.382 180.675 133.505L185.859 133.609L185.99 134.538C186.143 135.624 185.306 139.386 184.912 139.386C184.763 139.386 184.543 139.679 184.423 140.038C184.111 140.966 183.33 142.13 182.785 142.479C182.529 142.643 182.319 143.006 182.319 143.286C182.319 143.788 181.57 144.789 179.674 146.827C179.142 147.398 178.591 148.096 178.448 148.378C177.553 150.15 175.61 152.898 174.976 153.288C174.71 153.452 174.492 153.789 174.492 154.037C174.492 154.285 174.073 154.94 173.56 155.493C173.048 156.045 172.628 156.673 172.628 156.886C172.628 157.1 172.503 157.279 172.349 157.284C172.195 157.289 171.482 158.123 170.765 159.139C170.047 160.155 169.335 160.99 169.181 160.994C169.027 160.999 168.901 161.19 168.901 161.419C168.901 161.818 167.737 163.349 165.734 165.584C165.221 166.156 164.801 166.797 164.801 167.008C164.801 167.22 164.131 167.995 163.311 168.731C162.491 169.468 161.82 170.28 161.82 170.537C161.82 170.794 161.688 171.059 161.527 171.128C161.365 171.196 160.653 171.999 159.943 172.912C159.232 173.826 158.275 174.935 157.813 175.378C157.352 175.82 156.974 176.331 156.972 176.513C156.971 176.694 156.308 177.514 155.499 178.333C154.691 179.153 154.021 179.954 154.011 180.112C154.001 180.27 153.071 181.337 151.943 182.482C150.816 183.628 149.893 184.701 149.893 184.867C149.893 185.243 139.463 195.664 139.087 195.664C138.936 195.664 137.961 196.503 136.92 197.528C135.879 198.553 134.926 199.391 134.803 199.391C134.68 199.391 134.127 199.811 133.575 200.323C133.022 200.836 132.382 201.255 132.152 201.255C131.923 201.255 131.428 201.664 131.052 202.164C130.676 202.665 129.982 203.171 129.509 203.29C129.036 203.408 128.649 203.67 128.649 203.871C128.649 204.072 128.397 204.237 128.09 204.237C127.782 204.237 127.531 204.391 127.531 204.58C127.531 204.768 127.028 205.033 126.413 205.168C125.798 205.303 125.295 205.557 125.295 205.732C125.295 205.907 124.917 206.168 124.456 206.311C123.995 206.456 123.534 206.682 123.431 206.815C123.15 207.178 118.37 209.455 117.888 209.455C117.657 209.455 117.468 209.622 117.468 209.827C117.468 210.032 117.132 210.2 116.722 210.2C116.312 210.2 115.977 210.368 115.977 210.573C115.977 210.778 115.59 210.945 115.116 210.945C114.643 210.945 113.93 211.192 113.532 211.492C113.135 211.794 112.529 212.045 112.187 212.052C111.845 212.058 111.09 212.305 110.51 212.6C108.579 213.581 106.74 214.3 106.159 214.3C105.843 214.3 105.481 214.467 105.355 214.672C105.228 214.877 104.818 215.045 104.443 215.045C104.069 215.045 103.282 215.296 102.695 215.602C102.108 215.908 101.25 216.16 100.789 216.161C100.328 216.162 99.9505 216.293 99.9505 216.451C99.9505 216.718 97.8022 217.4 95.3848 217.899C94.8213 218.016 94.3599 218.241 94.3599 218.399C94.3599 218.558 93.5805 218.804 92.6279 218.947C91.6753 219.09 90.6272 219.341 90.2985 219.505C89.6239 219.841 86.911 220.585 85.2286 220.896C84.6136 221.009 83.9427 221.226 83.7377 221.377C83.5327 221.528 82.645 221.762 81.7646 221.896C80.8847 222.031 79.8783 222.286 79.5284 222.465C78.9235 222.773 75.7093 223.498 73.3019 223.869C72.687 223.963 71.8484 224.183 71.4384 224.356C71.0284 224.529 69.4351 224.955 67.8977 225.303C66.3603 225.65 64.8359 226.069 64.5101 226.233C64.1844 226.396 62.9686 226.649 61.808 226.794C60.6474 226.939 59.6981 227.206 59.6981 227.387C59.6981 227.569 59.2367 227.728 58.6732 227.743L57.6482 227.767L58.5133 228.184C59.5602 228.688 102.183 227.942 102.529 227.414C102.649 227.232 103.962 226.985 105.449 226.863C106.935 226.742 108.361 226.507 108.617 226.341C108.872 226.176 110.256 225.826 111.691 225.564C115.959 224.784 116.518 224.655 116.909 224.359C117.114 224.203 117.868 223.957 118.586 223.81C120.423 223.436 125.41 221.736 125.835 221.339C126.03 221.158 126.423 221.008 126.71 221.008C127.203 221.008 127.628 220.844 130.941 219.376C131.69 219.044 132.459 218.772 132.65 218.772C133.157 218.772 142.539 213.993 142.788 213.608C142.903 213.429 143.417 213.153 143.93 212.995C144.442 212.838 144.946 212.605 145.048 212.478C145.151 212.351 145.989 211.753 146.912 211.147C147.834 210.542 149.211 209.424 149.971 208.663C150.732 207.901 151.696 207.169 152.115 207.037C152.533 206.904 152.876 206.597 152.878 206.355C152.88 206.112 153.711 205.075 154.726 204.05C155.741 203.025 156.578 202.009 156.586 201.791C156.595 201.573 157.105 200.912 157.72 200.323C158.335 199.734 158.838 199.093 158.838 198.899C158.838 198.704 159.257 198.157 159.77 197.681C160.282 197.207 160.702 196.683 160.702 196.517C160.702 196.351 161.121 195.764 161.633 195.211C162.146 194.658 162.571 194.073 162.578 193.91C162.584 193.748 163.256 192.947 164.07 192.132C164.885 191.316 165.645 190.352 165.76 189.989C165.876 189.625 166.126 189.328 166.317 189.328C166.508 189.328 166.665 189.106 166.665 188.834C166.665 188.562 167.084 187.946 167.597 187.465C168.109 186.983 168.529 186.385 168.529 186.135C168.529 185.885 168.78 185.585 169.088 185.466C169.395 185.349 169.647 185.036 169.647 184.771C169.647 184.506 170.024 183.863 170.485 183.342C171.401 182.306 172.122 181.253 172.509 180.383C172.646 180.076 172.981 179.69 173.253 179.526C173.524 179.362 173.746 178.967 173.746 178.648C173.746 178.329 174.166 177.738 174.678 177.335C175.191 176.932 175.61 176.377 175.61 176.101C175.61 175.826 175.736 175.545 175.89 175.476C176.284 175.301 179.337 170.711 179.337 170.293C179.337 170.103 179.501 169.948 179.7 169.948C179.9 169.948 180.408 169.193 180.828 168.27C181.248 167.348 181.756 166.593 181.955 166.593C182.155 166.593 182.319 166.258 182.319 165.848C182.319 165.438 182.491 165.102 182.701 165.102C182.911 165.102 183.246 164.725 183.445 164.264C183.84 163.351 184.62 162.044 184.947 161.748C185.207 161.513 186.418 158.921 186.418 158.601C186.418 158.47 186.76 157.996 187.178 157.547C187.596 157.099 188.034 156.35 188.15 155.885C188.267 155.42 188.512 155.039 188.695 155.039C188.878 155.039 189.027 154.84 189.027 154.596C189.027 154.114 191.3 149.38 191.677 149.076C191.804 148.974 192.039 148.47 192.199 147.958C192.358 147.445 192.857 146.523 193.307 145.908C194.214 144.667 195.363 142.292 195.363 141.659C195.363 141.433 195.505 141.249 195.678 141.249C195.85 141.249 196.311 140.62 196.703 139.852C197.094 139.083 197.497 138.37 197.6 138.268C197.702 138.165 198.102 137.494 198.489 136.777C199.357 135.165 202.057 132.304 202.709 132.304C202.974 132.304 203.19 132.136 203.19 131.931C203.19 131.726 203.428 131.559 203.719 131.559C204.263 131.559 206.583 130.44 206.917 130.018C207.02 129.888 208.194 129.501 209.526 129.157C210.859 128.813 212.606 128.359 213.41 128.148C214.213 127.937 217.106 127.67 219.839 127.556C222.571 127.441 224.807 127.229 224.807 127.084C224.807 126.939 226.466 126.706 228.493 126.566C230.521 126.427 232.742 126.151 233.429 125.954C235.112 125.471 248.175 125.484 248.474 125.968C248.601 126.173 249.027 126.341 249.422 126.341C249.907 126.341 250.442 126.939 251.077 128.192C252.014 130.041 252.346 132.677 251.642 132.677C251.437 132.677 251.27 133.091 251.27 133.596C251.27 134.41 250.277 137.024 249.779 137.522C249.485 137.815 247.76 141.056 245.413 145.722C244.226 148.079 243.153 150.092 243.027 150.194C242.901 150.297 242.68 150.758 242.536 151.219C242.392 151.68 242.136 152.058 241.967 152.058C241.798 152.058 241.544 152.517 241.404 153.079C241.263 153.641 241.035 154.186 240.897 154.291C240.481 154.607 239.343 156.929 239.343 157.461C239.343 157.735 239.217 158.015 239.063 158.083C238.698 158.245 236.361 162.965 236.361 163.541C236.361 163.785 236.213 163.984 236.032 163.984C235.851 163.984 235.604 164.278 235.484 164.637C235.363 164.995 235.119 165.54 234.94 165.848C234.761 166.155 234.42 166.742 234.182 167.152C233.702 167.976 232.809 169.825 232.471 170.693C232.351 171 231.927 171.755 231.529 172.37C231.13 172.985 230.525 174.075 230.185 174.793C229.844 175.51 229.095 177.02 228.52 178.147C226.82 181.479 225.483 184.245 225.186 185.042C224.668 186.434 220.91 194.638 220.123 196.094C219.83 196.639 219.589 197.435 219.589 197.865C219.589 198.295 219.422 198.646 219.217 198.646C219.012 198.646 218.844 198.914 218.844 199.242C218.844 199.57 218.613 200.366 218.331 201.012C217.442 203.048 216.183 207.683 215.834 210.2C215.65 211.532 215.31 213.082 215.078 213.645C214.414 215.254 215.374 218.282 217.086 219.98C218.086 220.97 218.267 221.008 222.003 221.008C224.186 221.008 225.982 220.846 226.112 220.636C226.239 220.431 226.835 220.263 227.438 220.263C228.041 220.263 228.534 220.431 228.534 220.636C228.534 221.087 232.509 221.14 232.785 220.692C232.893 220.519 234.528 220.267 236.42 220.132C238.312 219.998 239.953 219.747 240.067 219.574C240.181 219.401 240.736 219.147 241.3 219.009C241.863 218.871 242.325 218.593 242.325 218.392C242.325 218.191 242.568 218.027 242.865 218.027C243.43 218.027 245.306 215.815 245.306 215.149C245.306 214.937 245.558 214.555 245.865 214.3C246.173 214.044 246.424 213.437 246.424 212.95C246.424 212.462 246.592 212.063 246.797 212.063C247.002 212.063 247.174 211.267 247.179 210.293C247.184 209.32 247.367 207.852 247.586 207.032C247.805 206.212 248.066 204.954 248.165 204.237C248.265 203.519 248.585 202.404 248.876 201.758C249.167 201.112 249.406 200.377 249.406 200.126C249.406 199.585 251.062 194.868 251.843 193.186C252.142 192.54 252.388 191.659 252.388 191.229C252.388 190.798 252.555 190.446 252.76 190.446C252.965 190.446 253.133 190.211 253.133 189.922C253.133 189.633 253.537 188.585 254.031 187.592C254.525 186.6 255.899 183.775 257.083 181.315C258.267 178.855 259.373 176.787 259.539 176.719C259.706 176.65 259.842 176.341 259.842 176.031C259.842 175.72 260.066 175.022 260.342 174.477C261.144 172.889 263.782 167.315 264.69 165.289C266.145 162.045 267.338 159.379 268.11 157.648C268.522 156.726 269.687 154.239 270.701 152.122C271.714 150.006 272.814 147.574 273.145 146.718C273.477 145.863 273.933 144.911 274.159 144.604C274.385 144.296 274.841 143.457 275.173 142.74C275.505 142.023 276.887 139.158 278.245 136.375C279.603 133.591 280.713 131.131 280.713 130.908C280.713 130.685 280.839 130.447 280.993 130.378C281.358 130.216 283.695 125.497 283.695 124.921C283.695 124.677 283.821 124.477 283.975 124.476C284.128 124.475 284.577 123.679 284.972 122.705C285.367 121.733 285.786 120.853 285.904 120.75C286.021 120.648 286.411 119.935 286.77 119.166C287.128 118.398 287.716 117.14 288.074 116.371C288.433 115.602 288.81 114.889 288.913 114.787C289.34 114.359 290.404 112.077 290.404 111.589C290.404 111.298 290.558 111.06 290.747 111.06C290.936 111.06 291.201 110.557 291.336 109.942C291.47 109.327 291.694 108.823 291.831 108.822C291.968 108.821 292.404 108.025 292.799 107.052C293.194 106.079 293.616 105.199 293.737 105.097C294.06 104.822 296.367 99.9536 296.367 99.5447C296.367 99.3528 296.493 99.1396 296.647 99.071C297.052 98.891 298.231 96.5571 298.231 95.9351C298.231 95.6444 298.38 95.4062 298.563 95.4062C298.746 95.4062 299.011 94.9466 299.152 94.385C299.292 93.8233 299.52 93.278 299.658 93.1733C300.086 92.8472 301.212 90.5278 301.212 89.9718C301.212 89.681 301.362 89.4429 301.545 89.4429C301.727 89.4429 301.992 88.9833 302.133 88.4217C302.274 87.86 302.506 87.3151 302.648 87.2104C303.241 86.7747 304.194 84.9421 304.194 84.238C304.194 83.821 304.348 83.4796 304.537 83.4796C304.726 83.4796 304.991 82.9764 305.126 82.3615C305.261 81.7465 305.486 81.2433 305.627 81.2433C305.896 81.2433 307.176 78.4961 307.176 77.9173C307.176 77.7309 307.301 77.5226 307.455 77.454C307.86 77.274 309.039 74.9401 309.039 74.3181C309.039 74.0274 309.193 73.7892 309.382 73.7892C309.571 73.7892 309.836 73.286 309.971 72.6711C310.106 72.0561 310.338 71.5529 310.486 71.5529C310.634 71.5529 311.072 70.6722 311.459 69.5962C311.846 68.5202 312.381 67.2202 312.648 66.7078C312.916 66.1953 313.135 65.5803 313.137 65.341C313.138 65.1021 313.276 64.8506 313.443 64.782C313.789 64.6411 316.121 59.9469 316.121 59.3915C316.121 58.8321 317.022 57.0237 317.302 57.0204C317.44 57.0189 317.663 56.5142 317.798 55.8993C317.933 55.2843 318.161 54.7811 318.304 54.7811C318.448 54.7811 318.891 53.9425 319.289 52.9176C319.686 51.8927 320.141 51.0541 320.298 51.0541C320.455 51.0541 320.691 50.3832 320.823 49.5632C320.954 48.7433 321.188 48.0724 321.342 48.0724C321.498 48.0724 321.725 47.7791 321.849 47.4202C321.972 47.0613 322.391 46.2521 322.78 45.6215C323.169 44.9912 323.604 43.9428 323.747 43.2921C323.89 42.6413 324.128 42.1091 324.276 42.1091C324.608 42.1091 325.815 38.814 325.813 37.9161C325.812 37.5572 325.979 37.2639 326.184 37.2639C326.389 37.2639 326.556 36.9706 326.554 36.6117C326.553 36.2528 326.805 35.163 327.113 34.1891C327.422 33.2152 327.927 31.6222 328.235 30.6484C328.544 29.6745 328.796 28.2828 328.794 27.5549C328.793 26.8274 329.002 26.022 329.258 25.7655C329.878 25.1461 329.836 12.8143 329.213 12.1912C328.982 11.9597 328.793 11.4599 328.793 11.0798C328.793 9.02353 324.062 3.02817 322.409 2.98904C322.075 2.98121 321.594 2.72329 321.338 2.41581C321.083 2.10833 320.476 1.85675 319.988 1.85675C319.501 1.85675 319.102 1.69909 319.102 1.50678C319.102 1.31409 317.928 1.0409 316.493 0.899267C315.058 0.758011 313.884 0.496371 313.884 0.317845C313.884 -0.101823 309.891 -0.107788 309.632 0.311134ZM98.0869 15.2265C98.0869 15.4054 97.4161 15.6588 96.5961 15.79C95.7762 15.9212 95.1053 16.153 95.1053 16.3059C95.1053 16.4583 94.5604 16.8213 93.894 17.1128C91.9011 17.9838 88.9049 21.1689 88.1726 23.1942C88.0429 23.5531 87.8092 23.8465 87.6526 23.8465C87.277 23.8465 86.5233 28.9783 86.795 29.6868C86.9441 30.0744 87.1808 29.8701 87.5923 28.9991C87.9143 28.3175 88.3947 27.6257 88.6597 27.4617C88.9251 27.2977 89.142 26.9138 89.142 26.6082C89.142 25.3205 94.1579 21.6102 95.8988 21.6102C96.2581 21.6102 96.6558 21.4425 96.7825 21.2375C96.9092 21.0325 97.8316 20.8648 98.8324 20.8648C99.8331 20.8648 100.756 21.0325 100.882 21.2375C101.009 21.4425 101.585 21.6102 102.163 21.6102C102.741 21.6102 103.422 21.8618 103.678 22.1693C103.933 22.4768 104.295 22.7283 104.483 22.7283C105.191 22.7283 108.204 26.1595 108.739 27.5735C108.855 27.881 109.105 28.4237 109.295 28.7796C109.485 29.1355 109.641 30.7732 109.641 32.4187C109.641 35.1305 109.482 35.8327 108.464 37.6366C108.29 37.9441 107.997 38.5311 107.812 38.9411C107.178 40.3492 104.277 42.7964 102.466 43.4512C102.108 43.5809 101.814 43.8351 101.814 44.0162C101.814 44.197 101.562 44.3453 101.255 44.3453C100.947 44.3453 100.696 44.5131 100.696 44.718C100.696 44.923 101.199 45.0908 101.814 45.0908C102.429 45.0908 102.932 44.923 102.932 44.718C102.932 44.5131 103.528 44.3453 104.257 44.3453C105.702 44.3453 108.895 43.0562 108.895 42.4725C108.895 42.2727 109.111 42.1091 109.375 42.1091C109.639 42.1091 110.629 41.3126 111.575 40.3387C113.398 38.461 114.859 35.6941 114.859 34.1164C114.859 33.5927 115.026 33.1641 115.231 33.1641C115.706 33.1641 115.723 28.8989 115.252 28.0342C115.058 27.6783 114.799 26.7584 114.676 25.9895C114.553 25.221 114.311 24.5919 114.137 24.5919C113.964 24.5919 113.714 24.1636 113.583 23.64C113.274 22.4089 108.696 17.7747 107.125 17.1016C106.459 16.8165 105.914 16.4639 105.914 16.3182C105.914 16.1724 105.285 15.9529 104.516 15.8299C103.748 15.7069 102.827 15.4475 102.471 15.2537C101.658 14.8109 98.0869 14.7886 98.0869 15.2265ZM298.853 16.0438C300.874 16.812 301.213 17.5444 301.207 21.1287C301.2 25.3168 300.822 26.4931 296.618 35.4004C295.893 36.9378 295.186 38.6571 295.047 39.2206C294.909 39.7842 294.687 40.2456 294.554 40.2456C294.422 40.2456 294.077 40.7908 293.788 41.4569C293.5 42.1229 292.475 44.3453 291.511 46.3952C290.547 48.4451 289.38 50.9609 288.916 51.9858C287.698 54.6801 279.488 71.1012 275.872 78.0753C272.153 85.2481 269.532 90.4909 269.532 90.7556C269.532 90.8625 268.861 92.3884 268.041 94.1468C267.221 95.9053 266.55 97.4949 266.55 97.6793C266.55 97.8642 266.425 98.0155 266.271 98.0159C265.962 98.017 264.627 100.553 262.838 104.538C262.194 105.972 261.508 107.438 261.314 107.793C261.119 108.149 260.96 108.675 260.96 108.961C260.96 109.805 258.845 111.625 256.563 112.743C254.792 113.611 253.722 113.833 250.151 114.075C247.794 114.235 245.027 114.537 244.002 114.746C242.977 114.954 241.3 115.298 240.275 115.511C239.25 115.723 235.392 116.227 231.702 116.632C228.013 117.037 224.239 117.568 223.316 117.814C222.394 118.059 218.998 118.325 215.769 118.405C209.282 118.565 208.968 118.438 210.84 116.419C211.357 115.861 211.871 114.972 211.981 114.443C212.09 113.915 212.338 113.191 212.53 112.835C212.723 112.48 212.883 111.976 212.886 111.717C212.889 111.458 213.228 110.827 213.64 110.314C214.051 109.802 215.162 108.209 216.108 106.774C217.054 105.339 217.952 104.081 218.105 103.978C218.258 103.876 219.853 101.36 221.649 98.3879C223.446 95.4155 225.73 91.7443 226.725 90.2297C227.72 88.7154 228.534 87.4083 228.534 87.3255C228.534 87.2424 229.205 86.2861 230.025 85.2C230.845 84.1139 231.516 83.1367 231.516 83.0282C231.516 82.9198 232.606 81.2005 233.939 79.2076C235.271 77.2147 236.361 75.5089 236.361 75.4168C236.361 75.1388 238.018 72.8664 238.318 72.7333C238.472 72.6647 238.597 72.3714 238.597 72.0811C238.597 71.7904 238.746 71.5529 238.927 71.5529C239.108 71.5529 239.355 71.2593 239.477 70.9007C239.598 70.5422 240.962 68.3197 242.507 65.9623C244.052 63.605 245.775 60.945 246.336 60.0512C246.897 59.1578 247.775 57.872 248.288 57.194C248.8 56.5165 249.89 55.0048 250.71 53.8348C251.53 52.6649 252.411 51.489 252.667 51.2214C252.924 50.9534 253.133 50.6389 253.133 50.5215C253.133 50.4044 253.427 50.0019 253.785 49.627C254.855 48.5092 256.115 46.9617 256.115 46.765C256.115 46.6643 256.408 46.2637 256.767 45.8753C257.914 44.6334 259.096 43.1695 259.096 42.9913C259.096 42.8966 259.516 42.4304 260.028 41.9555C260.541 41.4803 260.96 40.9015 260.96 40.6686C260.96 40.436 261.211 40.2456 261.519 40.2456C261.826 40.2456 262.078 40.079 262.078 39.8758C262.078 39.5188 263.053 38.2419 264.407 36.8275C264.766 36.4525 265.06 35.9781 265.06 35.7731C265.06 35.5681 265.311 35.4004 265.619 35.4004C265.926 35.4004 266.178 35.2252 266.178 35.0113C266.178 34.1067 275.693 24.5919 276.598 24.5919C276.811 24.5919 276.986 24.4189 276.986 24.2076C276.986 23.9959 277.28 23.7112 277.639 23.574C277.997 23.4372 278.616 23.0224 279.015 22.6523C279.413 22.2826 280.42 21.6292 281.251 21.201C283.726 19.9263 284.481 19.4828 284.919 19.0445C285.148 18.8157 285.643 18.6286 286.019 18.6286C286.395 18.6286 287.074 18.3949 287.528 18.1098C288.323 17.6103 292.028 16.2585 293.572 15.9044C295.004 15.5757 297.818 15.6503 298.853 16.0438ZM91.692 40.2843C90.3272 41.6872 89.1532 42.995 89.0831 43.1907C89.013 43.3864 87.3116 45.2775 85.302 47.3933C79.3502 53.6604 78.3335 54.7953 78.3335 55.1721C78.3335 55.3689 77.4949 56.3514 76.4699 57.3551C75.445 58.3584 74.6064 59.2924 74.6064 59.4299C74.6064 59.5674 73.8099 60.5205 72.8361 61.5476C71.8622 62.5748 70.9121 63.6948 70.7247 64.0366C70.5372 64.3783 69.9923 65.0272 69.5134 65.4786C69.0348 65.9299 68.6431 66.4413 68.6431 66.615C68.6431 66.7883 67.9722 67.6283 67.1523 68.4818C66.3323 69.335 65.6614 70.1463 65.6614 70.2846C65.6614 70.4225 65.2421 70.9242 64.7297 71.3994C64.2172 71.8742 63.7979 72.3983 63.7979 72.5637C63.7979 72.7296 63.3786 73.3173 62.8661 73.8701C62.3537 74.4224 61.9344 75.0486 61.9344 75.261C61.9344 75.4731 61.4312 76.0951 60.8163 76.6434C60.2013 77.1913 59.6981 77.8633 59.6981 78.1368C59.6981 78.4104 59.5468 78.6344 59.3623 78.6344C59.1775 78.6344 58.678 79.1793 58.2528 79.8457C57.8271 80.5121 57.2655 81.3902 57.0046 81.7972C56.7437 82.2042 56.1529 82.8803 55.6915 83.2999C55.2301 83.7192 54.8529 84.2746 54.8529 84.5343C54.8529 84.7937 54.4758 85.3766 54.0144 85.8295C53.1609 86.6673 52.4385 87.6912 51.9902 88.6975C51.8534 89.005 51.5187 89.3907 51.247 89.5547C50.9753 89.7187 50.7532 90.0698 50.7532 90.3355C50.7532 90.6009 50.4177 91.1219 50.0078 91.4928C49.5978 91.8636 49.2623 92.3191 49.2623 92.5043C49.2623 92.7797 47.3459 95.4591 46.6534 96.1516C46.277 96.528 45.5073 97.8471 45.2945 98.481C45.1741 98.8396 44.9233 99.1333 44.7373 99.1333C44.551 99.1333 44.2278 99.5105 44.0191 99.9719C43.3654 101.417 41.2547 104.646 40.6703 105.097C40.3286 105.36 38.4892 108.506 38.219 109.29C38.0953 109.648 37.8657 109.942 37.7084 109.942C37.5511 109.942 37.3242 110.235 37.2038 110.594C36.9168 111.449 36.2094 112.505 35.2858 113.459C34.8759 113.882 34.2206 114.857 33.8297 115.626C33.4383 116.394 32.9941 117.023 32.842 117.023C32.6903 117.023 32.1972 117.736 31.7466 118.607C31.2964 119.478 30.6784 120.471 30.3736 120.814C29.7631 121.5 28.7377 123.214 27.7367 125.223C27.3789 125.94 27.0024 126.611 26.8999 126.714C26.5816 127.032 25.5012 129.031 24.282 131.559C23.6395 132.891 22.9593 134.272 22.7703 134.628C22.5817 134.984 22.4274 135.53 22.4274 135.84C22.4274 136.15 22.2731 136.404 22.0842 136.404C21.8956 136.404 21.6228 136.949 21.4778 137.615C21.3328 138.282 20.9839 139.158 20.7026 139.562C20.4215 139.966 20.1912 140.595 20.1912 140.96C20.1912 141.324 20.0235 141.622 19.8185 141.622C19.6135 141.622 19.4458 141.919 19.4458 142.283C19.4458 142.903 17.662 147.842 16.9006 149.331C16.7101 149.703 16.2655 150.93 15.9122 152.058C15.5592 153.185 15.0575 154.611 14.7974 155.226C14.5372 155.841 13.8727 157.602 13.3211 159.139C12.7695 160.676 12.1609 162.225 11.9685 162.581C11.7762 162.937 11.6189 163.556 11.6189 163.957C11.6189 164.358 11.4658 164.78 11.2787 164.896C11.0916 165.012 10.8254 165.776 10.6872 166.593C10.5489 167.411 10.2925 168.169 10.1173 168.277C9.94176 168.386 9.68571 169.225 9.54818 170.143C9.41065 171.06 9.14939 171.811 8.96751 171.811C8.786 171.811 8.63729 172.117 8.63729 172.49C8.63729 173.133 7.81584 175.964 7.15801 177.588C6.99178 177.998 6.57025 179.424 6.22065 180.756C5.87143 182.089 5.43685 183.465 5.25497 183.815C5.07309 184.164 4.82412 185.171 4.70187 186.051C4.57963 186.931 4.33066 187.987 4.14878 188.397C3.9669 188.807 3.6568 189.981 3.45964 191.006C3.26285 192.03 2.8197 194.043 2.47532 195.478C1.10003 201.205 0.10118 209.563 0.0035304 216.163C-0.0568481 220.238 0.670303 228.847 1.18389 230.14C1.34677 230.55 1.7724 232.059 2.1302 233.494C2.48762 234.929 2.90468 236.271 3.05675 236.476C3.20881 236.681 3.44995 237.393 3.59232 238.06C3.7347 238.726 4.02355 239.271 4.23413 239.271C4.44508 239.271 4.5144 239.003 4.38843 238.675C3.43094 236.179 2.91922 224.392 3.54089 219.145C3.96764 215.544 4.9255 210.118 5.28479 209.268C5.4581 208.858 5.70296 207.635 5.82894 206.551C5.95491 205.467 6.24004 204.125 6.46217 203.569C6.68468 203.014 7.00371 202.224 7.1718 201.814C7.33952 201.404 7.5911 200.32 7.73049 199.406C7.86988 198.491 8.11028 197.485 8.26421 197.169C8.41851 196.854 8.84675 195.59 9.21573 194.36C9.58508 193.13 10.0252 191.964 10.1941 191.77C10.3629 191.575 10.5019 191.155 10.5031 190.838C10.5045 190.52 10.7561 189.78 11.0621 189.193C11.3685 188.605 11.6189 187.841 11.6189 187.494C11.6189 187.146 11.8653 186.536 12.1661 186.138C12.4672 185.741 12.7188 185.037 12.7251 184.576C12.7318 184.115 12.9048 183.738 13.1098 183.738C13.3148 183.738 13.4825 183.386 13.4825 182.955C13.4825 182.525 13.7512 181.561 14.0796 180.812C14.4079 180.064 14.8447 179.032 15.0505 178.52C15.6084 177.129 16.2826 175.521 16.9692 173.942C17.3064 173.166 17.5823 172.201 17.5823 171.798C17.5823 171.396 17.7366 171.066 17.9255 171.066C18.1141 171.066 18.3866 170.521 18.5312 169.854C18.6758 169.188 18.9001 168.559 19.0298 168.457C19.1595 168.354 19.5859 167.348 19.9773 166.221C20.3686 165.093 20.7868 164.087 20.9061 163.984C21.2318 163.705 22.1144 161.33 22.3261 160.164C22.4282 159.6 22.6425 159.139 22.802 159.139C22.9615 159.139 23.1986 158.715 23.3286 158.197C23.4583 157.679 23.9798 156.337 24.487 155.216C24.9943 154.094 25.8284 152.249 26.3409 151.116C26.8533 149.983 27.2726 148.829 27.2726 148.552C27.2726 148.275 27.5242 147.84 27.8317 147.585C28.1392 147.33 28.3908 146.816 28.3908 146.444C28.3908 146.07 28.5454 145.67 28.7348 145.553C28.9241 145.436 29.1891 144.839 29.3236 144.227C29.4582 143.614 29.7224 143.113 29.911 143.113C30.1 143.113 30.2543 142.858 30.2543 142.546C30.2543 142.235 30.649 141.354 31.1316 140.589C31.6143 139.825 32.1286 138.822 32.2747 138.361C32.4212 137.899 32.697 137.522 32.8882 137.522C33.0794 137.522 33.2412 137.313 33.2475 137.056C33.2613 136.509 34.4241 134.136 36.215 131C38.0647 127.76 39.4956 125.171 40.0255 124.105C40.2801 123.592 40.5768 123.089 40.6845 122.987C40.7922 122.884 41.4359 121.71 42.1146 120.378C42.7936 119.045 43.6639 117.452 44.0485 116.837C44.4332 116.222 44.9781 115.299 45.2595 114.787C46.8304 111.924 48.9653 108.342 49.2579 108.078C49.3712 107.976 49.6667 107.473 49.9146 106.96C50.5821 105.579 51.9149 103.317 53.4717 100.922C54.2313 99.7527 54.8529 98.6782 54.8529 98.534C54.8529 98.3897 55.248 97.7528 55.731 97.1184C56.2141 96.4841 56.7191 95.6175 56.8536 95.1923C56.9878 94.7674 57.3892 94.0864 57.7455 93.6798C58.6121 92.6903 59.6981 90.6281 59.6981 89.9718C59.6981 89.681 59.8483 89.4429 60.0321 89.4429C60.2155 89.4429 60.9255 88.5622 61.6094 87.4862C62.2933 86.4102 62.9813 85.4735 63.139 85.4053C63.2962 85.3368 63.4252 85.1001 63.4252 84.8787C63.4252 84.5131 65.5459 80.9399 66.0256 80.4979C66.1367 80.3954 66.5578 79.6828 66.9611 78.9139C67.3643 78.1454 67.8198 77.5163 67.973 77.5163C68.1265 77.5163 68.5943 76.8033 69.0132 75.9323C69.9327 74.0184 70.586 72.9357 71.0061 72.6282C71.1786 72.5022 71.5141 72.071 71.7515 71.67C72.7958 69.9086 74.451 67.3272 74.7928 66.9265C75.2952 66.338 76.0462 65.1554 76.3518 64.4715C76.4893 64.164 76.6992 63.8286 76.8177 63.7261C77.2791 63.3273 79.0789 60.7795 79.0789 60.5249C79.0789 60.377 79.5403 59.6554 80.1038 58.9219C81.1508 57.5593 81.8224 56.5209 82.2995 55.5266C82.447 55.2191 82.8309 54.7137 83.153 54.4032C83.7787 53.7991 84.52 52.7081 84.9211 51.7995C85.0567 51.492 85.643 50.6896 86.2233 50.0161C86.8036 49.343 87.2784 48.6225 87.2784 48.416C87.2784 48.2092 87.6977 47.5875 88.2102 47.0352C88.7227 46.4824 89.142 45.8365 89.142 45.6002C89.142 45.364 89.3936 45.074 89.701 44.9558C90.0085 44.8381 90.2601 44.5768 90.2601 44.3759C90.2601 44.1746 90.805 43.2298 91.4714 42.2761C92.1378 41.3223 92.8504 40.2679 93.0554 39.9332C93.2604 39.5982 93.73 39.0436 94.099 38.7003C94.4676 38.3571 94.6353 37.9993 94.4717 37.905C94.3077 37.811 93.0569 38.8818 91.692 40.2843ZM443.586 59.2059C443.586 59.3848 442.882 59.6438 442.021 59.7814C441.16 59.9189 440.279 60.163 440.064 60.324C439.849 60.4847 438.834 60.9263 437.81 61.3057C436.785 61.6848 435.724 62.217 435.453 62.488C435.182 62.7589 434.753 62.9807 434.499 62.9807C434.244 62.9807 433.698 63.2956 433.285 63.6806C432.872 64.0653 432.169 64.4961 431.724 64.6374C431.279 64.7786 430.914 65.0507 430.914 65.2419C430.914 65.4331 430.731 65.5896 430.507 65.5896C430.283 65.5896 428.958 66.4703 427.562 67.5463C424.995 69.5254 424.059 70.209 423.141 70.7755C422.384 71.2421 422.927 72.418 424.15 72.9595C425.071 73.3669 425.425 73.3345 426.67 72.7281C429.517 71.3424 430.953 70.8075 431.828 70.8075C432.316 70.8075 432.776 70.6271 432.849 70.4069C433.022 69.8896 440.239 69.8515 441.203 70.3633C441.591 70.5694 443.209 71.0386 444.798 71.4065C446.386 71.774 447.686 72.2089 447.686 72.3729C447.686 72.5369 448.002 72.6711 448.389 72.6711C448.775 72.6711 449.572 72.9215 450.159 73.2279C450.746 73.5339 451.52 73.7855 451.879 73.7869C452.238 73.7881 452.531 73.942 452.531 74.1291C452.531 74.3162 453.238 74.5883 454.101 74.7344C454.964 74.8801 455.928 75.1388 456.244 75.3087C457.366 75.9144 461.742 76.7708 463.712 76.7708C465.803 76.7708 470.35 75.8093 470.962 75.2379C471.156 75.056 471.689 74.9073 472.146 74.9073C472.603 74.9073 473.2 74.6841 473.473 74.4112C473.746 74.138 474.429 73.7996 474.991 73.6587C475.552 73.5175 476.012 73.2376 476.012 73.0367C476.012 72.8354 476.281 72.6711 476.611 72.6711C477.104 72.6711 479.222 71.2175 481.494 69.3201C481.741 69.1132 482.05 68.944 482.179 68.944C482.401 68.944 483.359 68.124 485.669 65.956C486.219 65.4398 487.13 64.6545 487.695 64.2103C488.604 63.495 488.666 63.3154 488.24 62.633C487.976 62.2092 487.548 61.8626 487.289 61.8626C487.032 61.8626 486.82 61.6949 486.82 61.4899C486.82 60.791 484.65 61.3497 483.839 62.2573C483.206 62.965 479.699 64.5423 478.345 64.7279C477.46 64.8491 476.648 65.0924 476.539 65.2691C476.255 65.7283 468.185 65.678 468.185 65.2169C468.185 65.0119 467.749 64.8442 467.216 64.8442C466.684 64.8442 465.719 64.6124 465.073 64.3288C464.427 64.0455 463.312 63.6009 462.594 63.3411C461.877 63.0813 460.787 62.6609 460.172 62.4063C457.496 61.2998 455.822 60.7444 455.164 60.7444C454.775 60.7444 454.398 60.5667 454.325 60.3494C454.253 60.1321 452.897 59.8563 451.312 59.7367C449.728 59.6166 448.431 59.3751 448.431 59.2C448.431 59.0244 447.341 58.8809 446.009 58.8809C444.676 58.8809 443.586 59.027 443.586 59.2059ZM348.36 95.6C347.13 95.8769 345.588 96.1143 344.934 96.1278C344.28 96.1408 343.651 96.3037 343.536 96.4893C343.421 96.6753 342.489 96.9425 341.464 97.0834C340.439 97.2243 339.601 97.4915 339.601 97.6775C339.601 97.8631 339.307 98.0252 338.949 98.0371C338.59 98.0491 337.542 98.4527 336.619 98.9335C335.697 99.4143 334.089 100.235 333.046 100.757C332.003 101.28 330.934 101.967 330.671 102.284C330.407 102.601 329.977 102.86 329.714 102.86C329.451 102.86 328.566 103.405 327.746 104.072C326.927 104.738 325.199 106.122 323.906 107.146C322.612 108.171 321.212 109.418 320.794 109.917C320.376 110.416 319.128 111.758 318.022 112.899C315.404 115.597 312.021 119.785 312.021 120.326C312.021 120.559 311.769 120.75 311.462 120.75C311.154 120.75 310.903 120.919 310.903 121.126C310.903 121.332 310.021 122.8 308.943 124.387C306.378 128.163 301.958 135.523 301.958 136.016C301.958 136.23 301.79 136.404 301.585 136.404C301.38 136.404 301.212 136.591 301.212 136.82C301.212 137.049 300.29 139.133 299.162 141.452C298.035 143.771 297.112 145.85 297.112 146.072C297.112 146.295 296.965 146.769 296.785 147.125C295.92 148.836 295.249 150.661 295.249 151.303C295.249 151.694 295.096 152.108 294.909 152.224C294.722 152.34 294.451 153.146 294.307 154.016C294.164 154.887 293.926 155.766 293.779 155.971C293.631 156.176 293.221 157.769 292.867 159.512C292.512 161.254 292.024 163.602 291.781 164.73C291.535 165.876 291.339 169.738 291.338 173.488C291.335 180.225 291.833 184.607 292.869 186.962C293.153 187.608 293.385 188.407 293.385 188.738C293.385 189.342 293.488 189.602 294.627 191.874C294.969 192.557 295.249 193.354 295.249 193.645C295.249 193.935 295.398 194.174 295.581 194.174C295.764 194.174 296.024 194.613 296.159 195.15C296.294 195.687 296.605 196.333 296.851 196.586C297.098 196.838 298.221 198.409 299.349 200.077C300.476 201.745 301.65 203.196 301.958 203.301C302.265 203.406 303.355 204.324 304.38 205.339C305.405 206.355 306.454 207.194 306.71 207.203C306.966 207.211 307.176 207.386 307.176 207.591C307.176 207.796 307.353 207.964 307.569 207.964C307.957 207.964 310.906 209.175 312.057 209.808C312.384 209.988 313.601 210.356 314.759 210.625C316.695 211.075 316.866 211.198 316.866 212.148C316.866 212.716 316.698 213.182 316.493 213.182C316.288 213.182 316.121 213.341 316.121 213.536C316.121 213.73 315.617 214.635 315.002 215.546C314.387 216.458 313.884 217.388 313.884 217.615C313.884 217.842 313.756 218.027 313.6 218.027C313.315 218.027 312.642 219.131 312.18 220.356C312.045 220.715 311.786 221.008 311.604 221.008C311.424 221.008 311.275 221.248 311.275 221.541C311.275 221.834 311.066 222.302 310.809 222.582C310.252 223.19 309.502 224.336 309.157 225.108C309.02 225.416 308.782 225.753 308.63 225.857C308.477 225.962 308.243 226.486 308.108 227.021C307.899 227.856 308.006 228.031 308.864 228.246C309.689 228.453 310.086 228.266 311.154 227.167C312.252 226.036 312.764 225.805 314.563 225.626C317.611 225.323 318.18 225.844 318.138 228.899C318.112 230.745 317.869 231.703 317.019 233.308C316.423 234.435 315.725 235.492 315.468 235.656C315.212 235.82 315.002 236.163 315.002 236.419C315.002 236.913 312.37 239.644 311.894 239.644C311.739 239.644 311.243 240.027 310.792 240.495C309.619 241.71 308.506 242.44 303.821 245.063C303.104 245.465 302.433 245.877 302.33 245.98C301.902 246.407 299.621 247.471 299.132 247.471C298.841 247.471 298.603 247.625 298.603 247.814C298.603 248.003 298.064 248.275 297.404 248.42C295.367 248.868 292.64 250.817 292.64 251.826C292.64 252.381 293.974 252.498 294.299 251.972C294.416 251.784 295.6 251.512 296.93 251.37C298.26 251.228 299.349 250.963 299.349 250.782C299.349 250.601 299.818 250.452 300.392 250.452C300.965 250.452 302.852 249.952 304.584 249.342C306.317 248.731 308.028 248.228 308.387 248.224C308.745 248.219 309.039 248.048 309.039 247.843C309.039 247.638 309.223 247.471 309.449 247.471C309.892 247.471 312.234 246.503 313.139 245.946C313.446 245.757 313.949 245.486 314.257 245.344C314.564 245.202 314.984 244.954 315.189 244.793C315.394 244.632 316.089 244.078 316.733 243.563C317.378 243.047 318.063 242.625 318.257 242.625C318.703 242.625 321.711 239.434 321.711 238.96C321.711 238.765 321.935 238.52 322.208 238.415C322.635 238.251 324.097 235.568 325.093 233.121C325.631 231.798 325.868 229.334 325.597 227.885C325.271 226.15 322.596 223.329 320.966 223.002C320.351 222.879 319.848 222.62 319.848 222.425C319.848 222.231 318.884 222.117 317.706 222.172C315.096 222.293 314.898 221.882 316.306 219.271C317.792 216.516 318.084 216.064 319.382 214.515C319.638 214.209 319.848 213.776 319.848 213.554C319.848 213.331 320.225 212.758 320.686 212.28C321.326 211.617 322.095 211.355 323.931 211.176C326.745 210.901 330.656 209.871 330.656 209.405C330.656 209.228 331.149 209.082 331.752 209.082C332.355 209.082 332.94 208.934 333.051 208.753C333.163 208.573 334.534 207.784 336.099 207C337.664 206.217 339.132 205.274 339.362 204.906C339.592 204.538 339.984 204.237 340.233 204.237C340.482 204.237 341.105 203.817 341.617 203.305C342.129 202.792 342.667 202.373 342.812 202.373C343.173 202.373 351.155 194.465 351.155 194.107C351.155 193.95 351.868 193.081 352.739 192.177C353.61 191.273 354.742 189.92 355.255 189.17C356.241 187.727 358 185.317 358.565 184.634C359.369 183.663 360.1 181.825 360.1 180.775C360.1 179.733 359.995 179.638 358.848 179.638C357.91 179.638 357.418 179.891 356.891 180.643C356.504 181.196 355.725 182.131 355.162 182.722C354.598 183.312 354.137 183.95 354.137 184.139C354.137 184.328 353.885 184.483 353.578 184.483C353.27 184.483 353.018 184.663 353.018 184.882C353.018 185.102 352.809 185.496 352.553 185.757C352.297 186.018 351.08 187.379 349.85 188.781C348.621 190.183 346.692 192.288 345.564 193.459C344.437 194.63 342.566 196.581 341.407 197.796C340.248 199.011 338.823 200.314 338.239 200.693C337.656 201.072 336.413 202.025 335.477 202.81C334.542 203.594 333.586 204.237 333.354 204.237C333.122 204.237 332.198 204.627 331.3 205.104C328.446 206.622 326.032 207.218 322.745 207.218C319.671 207.218 316.264 206.392 315.28 205.409C315.045 205.174 314.706 204.982 314.526 204.982C314.06 204.982 312.021 202.882 312.021 202.402C312.021 202.181 311.88 202 311.708 202C311.164 202 309.307 197.784 309.12 196.124C309.021 195.247 308.795 194.439 308.617 194.329C308.198 194.071 308.193 179.744 308.611 179.486C308.786 179.378 309.028 178.106 309.149 176.66C309.271 175.213 309.536 173.489 309.739 172.827C309.943 172.166 310.403 170.283 310.762 168.643C311.122 167.003 311.552 165.502 311.718 165.307C311.885 165.113 312.021 164.503 312.021 163.952C312.021 163.402 312.271 162.471 312.578 161.884C312.884 161.297 313.135 160.449 313.137 160C313.138 159.551 313.292 159.088 313.479 158.973C313.666 158.857 313.932 158.093 314.071 157.276C314.209 156.458 314.475 155.694 314.662 155.578C314.849 155.463 315.002 155.004 315.002 154.559C315.002 153.691 316.547 149.195 317.44 147.462C317.739 146.882 317.984 146.169 317.984 145.878C317.984 145.587 318.13 145.349 318.309 145.349C318.488 145.349 318.747 144.645 318.884 143.784C319.022 142.922 319.26 142.042 319.413 141.827C319.567 141.611 319.917 140.765 320.193 139.945C320.468 139.125 321.023 137.699 321.426 136.777C321.829 135.854 322.333 134.68 322.546 134.168C323.53 131.804 324.015 130.752 325.739 127.241C327.734 123.176 329.887 119.186 330.246 118.887C330.559 118.626 331.34 117.353 331.732 116.464C331.913 116.054 332.416 115.399 332.849 115.009C333.283 114.618 333.638 114.075 333.638 113.802C333.638 113.528 335.696 111.248 338.212 108.735C343.135 103.816 346.577 101.574 349.904 101.118C350.797 100.996 351.528 100.75 351.528 100.573C351.528 100.396 352.953 100.251 354.696 100.251C356.559 100.251 357.864 100.405 357.864 100.624C357.864 100.829 358.355 100.997 358.955 100.997C359.555 100.997 360.298 101.248 360.606 101.556C360.913 101.863 361.509 102.115 361.929 102.115C362.913 102.115 366.412 105.644 367.316 107.549C367.697 108.353 368.159 109.301 368.341 109.657C368.523 110.013 368.672 111.024 368.672 111.904C368.672 113.153 368.432 113.765 367.575 114.704C366.972 115.365 366.356 115.905 366.207 115.905C366.058 115.905 365.671 116.138 365.347 116.422C365.023 116.707 363.877 117.396 362.799 117.954C361.721 118.512 360.747 119.117 360.634 119.3C360.521 119.483 360.139 119.632 359.786 119.632C358.771 119.632 355.449 123.334 354.371 125.666C351.831 131.161 354.197 137.522 358.782 137.522C359.507 137.522 360.1 137.69 360.1 137.895C360.1 138.518 361.014 138.319 363.122 137.235C366.495 135.503 367.678 134.518 369.231 132.155C370.853 129.687 372.77 125.887 372.774 125.135C372.776 124.876 373.051 124.161 373.386 123.546C373.839 122.714 374.037 121.091 374.159 117.21C374.302 112.652 374.224 111.691 373.547 109.614C373.121 108.306 372.772 106.922 372.772 106.539C372.772 106.155 372.631 105.842 372.458 105.842C372.285 105.842 371.824 105.221 371.433 104.463C370.564 102.778 366.143 98.0152 365.448 98.0152C365.171 98.0152 364.945 97.8474 364.945 97.6424C364.945 97.4375 364.761 97.2697 364.536 97.2697C364.31 97.2697 363.597 97.0234 362.952 96.7219C359.386 95.0588 352.956 94.5643 348.36 95.6ZM443.586 96.468C443.586 96.6421 441.798 96.8858 439.612 97.0096C437.427 97.1337 435.54 97.3853 435.419 97.5694C435.299 97.7535 434.781 97.9973 434.269 98.1109C432.623 98.4762 428.883 99.9581 428.276 100.485C427.952 100.767 427.491 100.997 427.251 100.997C427.011 100.997 426.814 101.165 426.814 101.37C426.814 101.575 426.575 101.742 426.282 101.742C425.989 101.742 425.52 101.972 425.24 102.252C424.959 102.533 424.36 102.879 423.908 103.022C423.457 103.166 423.087 103.44 423.087 103.631C423.087 103.822 422.836 103.978 422.528 103.978C422.221 103.978 421.969 104.143 421.969 104.344C421.969 104.545 421.55 104.815 421.037 104.943C420.525 105.072 420.106 105.327 420.106 105.51C420.106 105.693 419.854 105.842 419.547 105.842C419.239 105.842 418.988 106.094 418.988 106.401C418.988 106.709 418.808 106.96 418.588 106.96C418.368 106.96 417.973 107.17 417.708 107.426C416.594 108.506 414.88 109.942 414.705 109.942C414.601 109.942 413.61 110.822 412.504 111.898C411.397 112.974 410.097 114.209 409.615 114.642C408.049 116.048 403.554 120.895 402.221 122.615C401.507 123.537 400.739 124.459 400.516 124.664C398.337 126.657 390.399 140.557 389.342 144.231C389.195 144.743 388.786 145.833 388.435 146.653C388.084 147.473 387.501 149.151 387.14 150.38C386.779 151.61 386.315 153.036 386.11 153.548C385.723 154.515 385.653 154.895 384.327 163.239C383.623 167.67 383.546 169.383 383.682 177.588C383.832 186.588 384.119 189.348 385.29 193.055C385.582 193.978 385.82 195.11 385.819 195.571C385.817 196.032 385.971 196.41 386.16 196.41C386.349 196.41 386.612 196.906 386.745 197.513C387.091 199.087 388.732 202.373 389.172 202.373C389.376 202.373 389.544 202.714 389.544 203.13C389.544 203.547 389.795 203.984 390.103 204.102C390.41 204.22 390.662 204.527 390.662 204.785C390.662 205.36 395.474 209.827 396.094 209.827C396.207 209.827 397.254 210.271 398.419 210.814C401.242 212.129 403.617 212.587 407.434 212.553C411.068 212.52 413.109 212.227 414.701 211.509C418.139 209.957 420.169 208.895 420.532 208.458C420.758 208.186 421.092 207.964 421.274 207.964C421.952 207.964 426.682 203.42 430.169 199.419C431.296 198.126 433.016 196.222 433.989 195.187C434.963 194.153 435.759 193.144 435.759 192.945C435.759 192.369 437.299 191.192 438.053 191.192C438.566 191.192 438.741 191.471 438.741 192.288C438.741 192.891 438.899 193.482 439.092 193.601C439.285 193.721 439.558 194.611 439.698 195.58C439.839 196.549 440.065 197.509 440.201 197.714C440.337 197.919 440.752 199.093 441.123 200.323C441.493 201.553 441.927 202.817 442.085 203.131C442.244 203.445 442.492 204.241 442.637 204.901C442.782 205.56 443.013 206.1 443.152 206.1C443.291 206.1 443.633 206.617 443.912 207.248C444.618 208.841 447.541 211.566 449.55 212.502C450.472 212.932 451.63 213.47 452.123 213.698C453.413 214.296 461.927 214.253 462.128 213.647C462.214 213.391 462.621 213.182 463.034 213.182C463.81 213.182 465.748 212.225 466.621 211.411C466.895 211.155 467.274 210.945 467.462 210.945C468.135 210.945 471.834 207.513 474.564 204.355C475.957 202.744 478.993 198.439 478.993 198.075C478.993 197.962 479.343 197.499 479.771 197.046C480.718 196.045 481.975 193.67 481.975 192.884C481.975 192.568 482.139 192.31 482.341 192.31C482.542 192.31 482.811 191.891 482.94 191.378C483.069 190.866 483.305 190.446 483.464 190.446C483.624 190.446 483.828 189.943 483.918 189.328C484.079 188.234 484.048 188.21 482.478 188.21C481.135 188.21 480.768 188.377 480.222 189.235C479.863 189.799 479.482 190.344 479.374 190.446C479.267 190.549 478.79 191.43 478.315 192.403C477.839 193.377 477.294 194.174 477.104 194.174C476.913 194.174 476.757 194.425 476.757 194.733C476.757 195.04 476.589 195.292 476.384 195.292C476.179 195.292 476.012 195.471 476.012 195.689C476.012 196.242 472.758 200.519 469.955 203.649C469.596 204.05 469.303 204.513 469.303 204.68C469.303 204.846 469.051 204.982 468.744 204.982C468.436 204.982 468.185 205.194 468.185 205.453C468.185 205.9 467.287 206.519 465.855 207.059C465.497 207.194 465.203 207.453 465.203 207.635C465.203 207.815 464.965 207.964 464.675 207.964C464.385 207.964 464.08 208.166 463.997 208.414C463.906 208.688 462.825 208.921 461.228 209.011C458.07 209.19 456.695 208.607 455.3 206.5C454.398 205.137 454.354 204.843 454.496 201.199C454.636 197.635 455.063 195.1 455.836 193.242C456.607 191.391 457.111 189.793 457.278 188.676C457.377 188.01 457.607 187.465 457.79 187.465C457.972 187.465 458.122 187.186 458.122 186.845C458.122 185.786 460.818 177.47 462.589 173.071C462.764 172.636 463.023 171.504 463.166 170.555C463.308 169.606 463.573 168.829 463.755 168.829C463.936 168.829 464.085 168.41 464.085 167.898C464.085 167.385 464.231 166.966 464.41 166.966C464.589 166.966 464.842 166.295 464.974 165.475C465.105 164.655 465.356 163.984 465.533 163.984C465.709 163.984 465.962 163.306 466.094 162.477C466.227 161.648 466.487 160.684 466.673 160.334C467.321 159.114 468.185 156.51 468.185 155.777C468.185 155.371 468.353 155.039 468.558 155.039C468.763 155.039 468.93 154.688 468.93 154.258C468.93 153.829 469.161 153.032 469.442 152.488C469.724 151.944 470.242 150.576 470.592 149.449C470.943 148.321 471.37 147.063 471.541 146.653C472.639 144.023 474.148 139.582 474.148 138.981C474.148 138.589 474.297 138.268 474.479 138.268C474.66 138.268 474.904 137.806 475.021 137.243C475.521 134.825 476.202 132.677 476.469 132.677C476.627 132.677 476.757 132.409 476.757 132.081C476.757 131.753 476.992 130.956 477.279 130.311C477.565 129.665 478.091 128.214 478.447 127.086C478.804 125.959 479.227 124.701 479.388 124.291C479.549 123.881 479.974 122.707 480.333 121.682C480.692 120.657 481.117 119.643 481.277 119.427C481.438 119.212 481.682 118.332 481.82 117.47C481.958 116.61 482.217 115.905 482.396 115.905C482.574 115.905 482.722 115.528 482.723 115.066C482.724 114.605 482.976 113.747 483.282 113.16C483.588 112.573 483.844 111.818 483.851 111.483C483.857 111.148 484.108 110.548 484.41 110.15C484.71 109.752 484.957 109.049 484.957 108.588C484.957 108.127 485.124 107.646 485.329 107.519C485.534 107.392 485.702 106.874 485.702 106.366C485.702 105.858 485.967 105.039 486.29 104.546C486.613 104.053 486.823 103.262 486.756 102.789C486.635 101.934 486.583 101.926 478.886 101.597C471.513 101.282 471.113 101.299 470.605 101.97C470.312 102.357 470.067 102.968 470.06 103.326C470.054 103.685 469.881 103.978 469.676 103.978C469.471 103.978 469.303 104.222 469.303 104.519C469.303 104.816 469.089 105.193 468.826 105.357C468.564 105.521 468.024 106.41 467.625 107.333C467.227 108.255 466.793 109.094 466.661 109.196C466.53 109.299 466.314 109.73 466.181 110.156C465.82 111.313 464.525 112.553 463.919 112.32C463.625 112.208 463.278 111.627 463.147 111.029C463.015 110.431 462.753 109.942 462.565 109.942C462.376 109.942 462.222 109.69 462.222 109.383C462.222 109.075 462.065 108.824 461.874 108.824C461.683 108.824 461.408 108.446 461.263 107.985C460.291 104.898 452.772 98.0152 450.371 98.0152C449.953 98.0152 449.55 97.831 449.475 97.6059C449.4 97.3812 448.212 97.1065 446.835 96.9958C445.458 96.8855 444.332 96.6503 444.332 96.4733C444.332 96.2962 444.164 96.1516 443.959 96.1516C443.754 96.1516 443.586 96.294 443.586 96.468ZM553.348 99.4985C552.323 99.6696 550.73 99.9316 549.808 100.081C548.885 100.23 547.963 100.475 547.758 100.626C547.553 100.777 546.771 101.01 546.02 101.145C545.27 101.28 543.341 102.056 541.734 102.869C540.127 103.683 538.603 104.349 538.347 104.35C538.091 104.35 537.881 104.501 537.881 104.684C537.881 104.866 537.458 105.122 536.94 105.252C536.422 105.382 535.697 105.79 535.327 106.16C534.958 106.529 534.418 106.943 534.126 107.079C533.103 107.559 532.102 108.272 531.286 109.103C530.833 109.565 530.265 109.942 530.024 109.942C529.783 109.942 528.684 110.864 527.584 111.992C526.483 113.119 525.448 114.042 525.285 114.042C524.912 114.042 522.227 116.769 522.227 117.148C522.227 117.302 521.305 118.329 520.178 119.43C519.05 120.53 518.128 121.614 518.128 121.837C518.128 122.06 517.457 122.849 516.637 123.59C515.817 124.331 515.146 125.103 515.146 125.305C515.146 125.623 514.627 126.356 512.904 128.468C512.702 128.716 512.537 129.064 512.537 129.242C512.537 129.42 512.159 129.921 511.698 130.356C511.237 130.79 510.441 131.947 509.928 132.925C509.416 133.904 508.703 135.035 508.344 135.438C507.985 135.842 507.692 136.296 507.692 136.448C507.692 136.599 507.482 136.953 507.226 137.233C506.535 137.989 505.456 140.115 505.456 140.72C505.456 141.011 505.307 141.249 505.126 141.249C504.945 141.249 504.699 141.543 504.578 141.901C504.457 142.26 504.215 142.805 504.039 143.113C503.176 144.615 502.474 146.205 502.474 146.653C502.474 146.926 502.342 147.206 502.18 147.275C501.757 147.454 498.831 155.321 498.53 157.089C498.391 157.909 498.152 158.748 498 158.953C497.847 159.158 497.628 159.829 497.512 160.444C497.397 161.059 496.951 163.071 496.522 164.916C495.585 168.948 495.059 181.26 495.694 184.297C496.674 188.974 497.821 193.278 498.19 193.658C498.413 193.887 498.832 194.81 499.121 195.708C499.411 196.607 499.738 197.425 499.849 197.528C499.96 197.63 500.467 198.511 500.975 199.485C501.484 200.458 502.029 201.255 502.187 201.255C502.345 201.255 502.474 201.507 502.474 201.814C502.474 202.122 502.642 202.373 502.847 202.373C503.052 202.373 503.219 202.627 503.219 202.938C503.219 203.551 507.763 208.248 510.016 209.965C511.872 211.379 515.386 213.182 516.286 213.182C516.684 213.182 517.01 213.339 517.01 213.532C517.01 213.724 518.184 213.997 519.618 214.139C521.053 214.28 522.227 214.542 522.227 214.721C522.227 214.899 523.485 215.045 525.023 215.045C526.56 215.045 527.818 214.902 527.818 214.728C527.818 214.553 529.18 214.305 530.845 214.177C532.51 214.049 534.061 213.803 534.292 213.631C534.524 213.459 535.678 213.001 536.856 212.614C538.035 212.226 538.999 211.776 538.999 211.614C538.999 211.451 539.222 211.318 539.495 211.318C540.035 211.318 543.581 209.09 543.782 208.625C543.851 208.466 544.138 208.336 544.422 208.336C544.705 208.336 545.452 207.833 546.081 207.218C546.71 206.603 547.299 206.1 547.389 206.1C547.872 206.1 555.943 197.476 557.155 195.664C557.497 195.152 557.871 194.649 557.986 194.546C558.354 194.217 559.14 192.888 559.366 192.217C559.487 191.858 559.733 191.565 559.914 191.565C560.095 191.565 560.244 191.313 560.244 191.006C560.244 190.698 560.415 190.446 560.626 190.446C560.835 190.446 561.166 190.069 561.36 189.608C561.554 189.147 562.212 187.931 562.821 186.906C563.43 185.881 564.315 184.287 564.788 183.365C565.261 182.443 565.733 181.604 565.837 181.502C566.072 181.273 567.778 177.751 568.637 175.725C569.264 174.246 569.887 172.833 571.022 170.32C571.346 169.603 571.696 168.932 571.801 168.829C571.906 168.727 572.393 167.637 572.885 166.407C573.377 165.177 574.34 162.943 575.025 161.441C575.71 159.94 576.276 158.514 576.282 158.273C576.289 158.032 576.609 157.457 576.994 156.996C577.619 156.247 578.032 156.157 580.873 156.157C582.622 156.157 584.143 156.012 584.253 155.834C584.363 155.656 585.463 155.396 586.698 155.256C587.932 155.116 588.942 154.843 588.942 154.648C588.942 154.453 589.366 154.294 589.885 154.294C590.404 154.294 590.925 154.042 591.043 153.735C591.161 153.427 591.576 153.176 591.964 153.176C592.352 153.176 592.669 153.008 592.669 152.803C592.669 152.598 592.895 152.43 593.171 152.43C593.953 152.43 596.518 149.401 597.62 147.175C599.523 143.332 599.874 141.735 599.906 136.777C599.933 132.72 599.838 131.949 599.173 130.813C598.55 129.749 598.156 129.488 597.03 129.393L595.651 129.277V131.909C595.651 133.356 595.507 134.54 595.332 134.54C595.156 134.54 594.915 135.837 594.795 137.421C594.675 139.006 594.4 140.362 594.182 140.434C593.965 140.507 593.787 140.971 593.787 141.466C593.787 141.962 593.638 142.367 593.455 142.367C593.272 142.367 593.022 142.766 592.9 143.254C592.777 143.742 591.906 144.999 590.963 146.047C589.38 147.808 588.779 148.202 585.85 149.396C584.402 149.987 580.298 149.937 579.454 149.32C578.816 148.854 578.8 148.597 579.224 145.686C580.249 138.654 580.42 135.897 580.251 129.136C580.029 120.267 578.893 114.515 576.506 110.172C576.069 109.377 575.492 108.329 575.224 107.843C574.957 107.357 574.58 106.96 574.386 106.96C574.192 106.96 574.034 106.724 574.034 106.436C574.034 105.851 570.552 102.587 569.38 102.073C568.967 101.892 568.378 101.595 568.07 101.413C567.451 101.048 566.312 100.59 564.343 99.9167C562.69 99.3513 555.8 99.0889 553.348 99.4985ZM450.411 102.305C453.928 104.007 455.449 105.838 456.784 109.976C458.675 115.84 458.842 125.908 457.156 132.491C456.841 133.72 456.445 135.398 456.275 136.218C456.106 137.038 455.779 138.625 455.548 139.745C455.318 140.866 454.964 141.947 454.762 142.149C454.56 142.351 454.395 142.988 454.395 143.565C454.395 144.142 454.249 144.905 454.071 145.261C453.728 145.946 452.567 149.252 452.338 150.194C452.124 151.076 451.343 153.257 450.804 154.48C450.533 155.095 449.542 157.52 448.602 159.869C447.661 162.217 446.483 165.032 445.984 166.122C445.485 167.213 445.077 168.269 445.077 168.468C445.077 168.667 444.95 168.829 444.795 168.829C444.64 168.829 444.294 169.374 444.025 170.041C443.326 171.775 441.565 175.256 439.64 178.706C438.726 180.346 437.725 182.24 437.416 182.916C437.107 183.591 436.608 184.238 436.307 184.353C436.006 184.468 435.759 184.808 435.759 185.108C435.759 185.687 433.588 189.057 433.079 189.266C432.913 189.335 432.778 189.555 432.778 189.757C432.778 189.959 432.358 190.673 431.846 191.345C431.333 192.017 430.914 192.689 430.914 192.838C430.914 192.987 430.705 193.329 430.448 193.597C430.192 193.866 429.395 194.81 428.678 195.695C427.961 196.579 426.412 198.318 425.237 199.559C424.062 200.799 423.098 201.94 423.094 202.094C423.09 202.247 422.921 202.373 422.718 202.373C422.515 202.373 421.55 202.982 420.575 203.728C419.599 204.473 418.298 205.297 417.683 205.56C417.068 205.823 415.894 206.332 415.074 206.691C412.446 207.842 406.614 207.836 405.459 206.682C405.194 206.416 404.649 206.087 404.248 205.952C403.49 205.695 401.208 202.428 401.393 201.864C401.451 201.686 401.2 201.099 400.834 200.559C400.247 199.693 400.174 198.707 400.211 192.124C400.234 188.024 400.454 183.663 400.699 182.433C400.944 181.203 401.301 179.275 401.492 178.147C401.818 176.229 402.573 172.455 403.318 169.016C404.115 165.336 408.367 152.177 408.972 151.517C409.151 151.323 409.302 150.82 409.309 150.399C409.315 149.979 409.567 149.309 409.868 148.912C410.169 148.514 410.415 147.835 410.415 147.402C410.415 146.97 410.562 146.457 410.741 146.262C410.921 146.068 411.527 144.734 412.088 143.299C412.649 141.864 413.322 140.271 413.582 139.758C413.843 139.246 414.322 138.24 414.647 137.522C416.575 133.274 421.166 124.163 421.597 123.732C421.699 123.629 422.103 122.917 422.494 122.148C422.885 121.379 423.346 120.75 423.519 120.75C423.692 120.75 423.833 120.511 423.833 120.218C423.833 119.925 424.043 119.457 424.299 119.177C424.979 118.435 425.686 117.304 425.937 116.557C426.057 116.199 426.304 115.905 426.485 115.905C426.666 115.905 426.814 115.737 426.814 115.532C426.814 115.165 427.154 114.715 428.907 112.762C429.396 112.218 429.796 111.677 429.796 111.561C429.796 111.282 431.098 109.872 433.122 107.959C434.029 107.102 435.077 106.107 435.452 105.749C435.826 105.39 436.3 105.097 436.505 105.097C436.71 105.097 436.878 104.932 436.878 104.731C436.878 104.53 437.297 104.26 437.809 104.132C438.322 104.003 438.741 103.766 438.741 103.606C438.741 103.189 441.565 102.115 442.662 102.115C443.17 102.115 443.586 101.947 443.586 101.742C443.586 101.532 444.65 101.37 446.032 101.37C447.881 101.37 448.949 101.598 450.411 102.305ZM563.199 104.771C563.931 105.003 565.033 105.445 565.648 105.756C567.063 106.47 570.307 109.78 570.307 110.51C570.307 110.812 570.474 111.06 570.679 111.06C570.884 111.06 571.052 111.311 571.052 111.619C571.052 111.926 571.206 112.178 571.395 112.178C571.584 112.178 571.855 112.723 571.997 113.389C572.14 114.056 572.387 114.768 572.547 114.973C572.707 115.178 572.897 116.415 572.97 117.722C573.072 119.559 572.975 120.16 572.543 120.371C568.869 122.167 566.915 124.006 565.391 127.1C564.373 129.168 564.128 130.26 563.729 134.482C563.511 136.805 564.066 141.835 564.703 143.299C566.151 146.628 567.357 148.776 569.242 151.386C571.453 154.449 571.523 154.704 570.701 156.716C570.533 157.126 570.104 158.217 569.748 159.139C569.057 160.925 568.882 161.357 567.781 163.984C567.395 164.907 566.855 166.374 566.583 167.245C566.31 168.116 565.947 168.829 565.774 168.829C565.602 168.829 565.461 169.014 565.461 169.239C565.461 169.643 565.236 170.184 563.225 174.606C561.703 177.956 561.096 179.164 559.296 182.433C558.393 184.073 557.546 185.709 557.414 186.067C557.283 186.426 557.027 186.719 556.846 186.719C556.665 186.719 556.516 186.959 556.516 187.252C556.516 187.545 556.287 188.014 556.007 188.294C555.726 188.575 555.379 189.174 555.236 189.625C555.093 190.077 554.819 190.446 554.628 190.446C554.437 190.446 554.28 190.698 554.28 191.006C554.28 191.313 554.112 191.565 553.907 191.565C553.703 191.565 553.535 191.776 553.535 192.034C553.535 192.292 553.157 192.923 552.696 193.435C552.235 193.947 551.189 195.204 550.372 196.227C547.869 199.36 542.759 204.237 541.978 204.237C541.775 204.237 541.608 204.401 541.608 204.602C541.608 204.803 541.189 205.073 540.676 205.202C540.164 205.33 539.745 205.566 539.745 205.724C539.745 205.883 539.451 206.112 539.092 206.232C538.733 206.353 538.189 206.6 537.881 206.782C534.598 208.723 532.041 209.213 526.205 209.019C522.227 208.887 521.34 208.746 520.466 208.108C519.897 207.693 519.139 207.245 518.78 207.112C518.421 206.978 518.128 206.696 518.128 206.484C518.128 206.273 517.876 206.1 517.569 206.1C517.261 206.1 517.01 205.95 517.01 205.767C517.01 205.583 516.593 205.038 516.084 204.555C515.575 204.073 515.156 203.384 515.152 203.025C515.149 202.667 515.013 202.373 514.85 202.373C514.579 202.373 514.033 200.85 512.915 196.969C512.628 195.973 512.542 193.128 512.656 188.397C512.827 181.313 513.068 179.121 514.214 174.234C514.551 172.799 514.983 170.877 515.175 169.963C515.368 169.049 515.692 168.135 515.895 167.932C516.098 167.729 516.264 167.106 516.264 166.549C516.264 165.992 516.499 165.061 516.787 164.48C517.074 163.9 517.599 162.503 517.953 161.375C518.526 159.551 519.884 155.8 520.719 153.735C520.885 153.325 521.318 152.235 521.683 151.312C522.413 149.464 523.284 147.507 525.498 142.74C526.308 140.998 527.099 139.153 527.258 138.64C527.416 138.128 527.652 137.625 527.781 137.522C527.91 137.42 528.614 136.162 529.345 134.727C532.515 128.501 535.224 123.732 535.592 123.732C535.729 123.732 536.132 123.061 536.488 122.241C536.843 121.421 537.302 120.75 537.507 120.75C537.713 120.75 537.881 120.575 537.881 120.362C537.881 118.95 548.083 108.078 549.407 108.078C549.593 108.078 549.801 107.947 549.87 107.787C550.077 107.3 553.975 105.482 555.957 104.947C558.326 104.307 561.486 104.231 563.199 104.771ZM24.291 273.034C24.291 273.343 27.6163 276.541 27.939 276.544C28.0851 276.544 28.7154 277.006 29.34 277.569C30.6922 278.787 31.6955 279.466 32.5837 279.764C32.9426 279.885 33.2359 280.112 33.2359 280.269C33.2359 280.426 33.5293 280.653 33.8882 280.773C34.6347 281.024 35.7663 281.732 36.5079 282.412C36.7875 282.668 37.2418 282.878 37.5176 282.878C37.7934 282.878 38.0748 283.003 38.1434 283.157C38.2116 283.311 39.6931 284.13 41.4355 284.977C46.1789 287.282 47.249 287.723 48.1073 287.723C48.5378 287.723 48.8896 287.887 48.8896 288.089C48.8896 288.29 49.351 288.554 49.9146 288.677C50.4781 288.799 51.275 289.041 51.6849 289.214C52.0949 289.388 53.4367 289.812 54.6666 290.156C55.8965 290.501 57.1544 290.878 57.4619 290.994C58.1376 291.25 61.5572 292.104 63.6116 292.53C64.4315 292.7 65.5746 293.03 66.1516 293.263C66.7285 293.495 67.9446 293.686 68.8537 293.686C69.7627 293.686 70.5066 293.834 70.5066 294.015C70.5066 294.196 71.9743 294.459 73.7678 294.6C75.5617 294.741 77.5322 295.003 78.1471 295.181C80.8988 295.979 91.0998 296.76 107.591 297.437C122.102 298.032 371.104 298.027 400.352 297.431C411.114 297.212 428.305 296.878 438.555 296.69C448.804 296.501 461.635 296.168 467.067 295.95C472.499 295.731 481.891 295.546 487.938 295.538C493.986 295.53 501.145 295.371 503.848 295.184C506.552 294.998 517.244 294.726 527.609 294.58C537.973 294.434 546.453 294.2 546.453 294.06C546.453 293.92 551.779 293.696 558.287 293.562C572.09 293.279 588.484 292.714 598.26 292.186C602.052 291.981 608.509 291.813 612.609 291.814C619.163 291.815 629.731 291.037 630.254 290.515C630.355 290.414 627.471 290.332 623.847 290.332C620.223 290.332 616.966 290.178 616.61 289.99C615.69 289.503 567.38 288.668 486.448 287.739C442.253 287.231 282.009 287.486 281.306 288.066C281.076 288.256 270.009 288.42 255.742 288.445C241.905 288.47 224.966 288.645 218.099 288.833C211.231 289.022 193.537 289.288 178.778 289.426C164.019 289.564 151.769 289.815 151.557 289.984C151.345 290.153 140.066 290.411 126.492 290.557C112.919 290.703 101.814 290.964 101.814 291.136C101.814 291.668 94.4504 291.52 94.2339 290.984C94.0837 290.611 94.0401 290.611 94.0166 290.984C93.982 291.533 92.1236 291.624 92.1236 291.077C92.1236 290.842 89.4081 290.697 84.7627 290.685C77.7081 290.665 75.7085 290.532 68.6431 289.609C62.6783 288.83 53.1821 286.988 51.3122 286.247C50.9022 286.085 49.5605 285.671 48.3306 285.327C47.1006 284.983 45.7589 284.552 45.3489 284.37C42.7799 283.229 38.9548 281.76 38.5541 281.76C38.2939 281.76 38.0811 281.61 38.0811 281.427C38.0811 281.245 37.6302 280.982 37.0789 280.844C36.5277 280.705 35.6474 280.29 35.1222 279.92C34.5971 279.551 33.7615 279.122 33.2646 278.968C32.7678 278.813 32.1808 278.542 31.9602 278.365C30.072 276.853 29.2297 276.262 28.6703 276.058C28.3114 275.927 28.018 275.647 28.018 275.435C28.018 275.224 27.7944 275.051 27.5212 275.051C27.2477 275.051 26.535 274.553 25.9372 273.943C24.9041 272.89 24.291 272.552 24.291 273.034ZM601.8 275.036C602.415 275.21 603.841 275.623 604.968 275.953C606.096 276.282 607.563 276.655 608.23 276.782C608.896 276.909 609.441 277.138 609.441 277.293C609.441 277.447 610.363 277.689 611.491 277.83C612.618 277.971 613.541 278.226 613.541 278.397C613.541 278.568 614.385 278.824 615.416 278.966C616.448 279.108 618.165 279.543 619.232 279.933C620.298 280.323 621.454 280.642 621.801 280.642C622.148 280.642 622.654 280.853 622.925 281.111C623.45 281.611 625.985 282.439 627.983 282.763C628.649 282.871 629.194 283.087 629.194 283.244C629.194 283.4 629.865 283.635 630.685 283.766C631.505 283.898 632.176 284.17 632.176 284.373C632.176 284.575 632.453 284.741 632.791 284.741C633.361 284.741 636.858 286.226 638.139 287.012C638.447 287.201 638.95 287.47 639.257 287.611C639.565 287.752 640.038 288.087 640.309 288.354C640.58 288.622 641.041 288.841 641.334 288.841C641.627 288.841 641.866 289.093 641.866 289.4C641.866 289.708 642.046 289.959 642.266 289.959C642.771 289.959 643.484 290.668 644.057 291.737C644.343 292.272 644.364 292.568 644.116 292.568C643.904 292.568 643.73 292.82 643.73 293.127C643.73 293.435 643.499 293.686 643.216 293.686C642.934 293.686 642.495 293.937 642.241 294.243C641.986 294.55 641.127 294.996 640.331 295.235C639.536 295.473 638.885 295.809 638.885 295.981C638.885 296.154 638.449 296.295 637.916 296.295C637.383 296.295 636.335 296.561 635.587 296.885C634.838 297.21 633.675 297.713 633.002 298.003C632.329 298.294 631.374 298.531 630.881 298.531C630.387 298.531 629.88 298.699 629.753 298.904C629.627 299.109 629.03 299.277 628.427 299.277C627.824 299.277 627.331 299.434 627.331 299.627C627.331 299.819 626.574 300.09 625.649 300.229C624.724 300.367 623.885 300.614 623.785 300.776C623.685 300.938 622.723 301.19 621.647 301.337C620.571 301.483 619.606 301.717 619.504 301.857C619.199 302.271 616.005 303.377 615.112 303.377C614.658 303.377 614.286 303.516 614.286 303.687C614.286 303.972 612.2 304.627 609.72 305.121C609.156 305.233 608.695 305.459 608.695 305.623C608.695 305.786 608.011 306.036 607.174 306.177C606.337 306.318 605.205 306.668 604.658 306.953C603.691 307.457 603.717 307.472 605.599 307.474C606.663 307.475 607.629 307.322 607.746 307.133C607.862 306.944 609.088 306.684 610.47 306.556C611.851 306.428 613.263 306.169 613.608 305.981C613.952 305.793 615.336 305.526 616.683 305.388C618.029 305.25 619.131 304.993 619.131 304.816C619.131 304.639 619.697 304.495 620.389 304.495C621.08 304.495 622.36 304.243 623.231 303.936C624.102 303.628 625.381 303.377 626.073 303.377C626.765 303.377 627.331 303.232 627.331 303.055C627.331 302.879 628.295 302.553 629.474 302.333C633.004 301.672 633.798 301.47 635.028 300.92C635.673 300.631 636.638 300.395 637.171 300.395C637.704 300.395 638.139 300.242 638.139 300.055C638.139 299.868 638.81 299.602 639.63 299.463C640.45 299.325 641.121 299.059 641.121 298.871C641.121 298.684 641.54 298.531 642.053 298.531C642.565 298.531 642.984 298.375 642.984 298.184C642.984 297.993 643.338 297.724 643.77 297.587C645.186 297.138 647.338 295.106 647.885 293.703C648.63 291.794 647.911 289.923 645.589 287.723C642.777 285.059 642.545 284.881 641.066 284.252C640.379 283.96 638.894 283.297 637.767 282.781C634.776 281.409 632.635 280.642 631.796 280.642C631.39 280.642 631.058 280.506 631.058 280.34C631.058 280.174 630.093 279.858 628.915 279.639C627.736 279.419 625.514 278.896 623.976 278.477C619.715 277.315 613.592 276.061 611.304 275.883C610.177 275.795 609.087 275.592 608.882 275.433C608.677 275.273 606.748 275.047 604.596 274.93C602.179 274.799 601.11 274.839 601.8 275.036ZM342.896 310.436C342.351 310.608 340.715 310.868 339.262 311.014C337.808 311.16 336.619 311.409 336.619 311.567C336.619 311.725 335.941 311.962 335.112 312.095C333.737 312.315 332.997 312.595 331.401 313.5C331.094 313.675 330.591 313.93 330.283 314.067C329.976 314.205 329.64 314.419 329.538 314.543C329.435 314.667 328.513 315.306 327.488 315.961C325.582 317.181 323.368 319.154 321.715 321.104C320.481 322.56 317.611 326.922 317.611 327.341C317.611 327.524 317.282 328.137 316.879 328.702C316.476 329.268 316.034 330.468 315.896 331.369C315.759 332.27 315.511 333.18 315.346 333.391C314.318 334.71 314.29 348.444 315.313 349.718C315.505 349.956 315.786 350.733 315.939 351.444C316.225 352.781 316.343 353.08 317.372 355.054C317.709 355.701 317.984 356.483 317.984 356.793C317.984 357.104 318.11 357.413 318.264 357.481C318.642 357.65 320.593 360.282 320.593 360.624C320.593 361.106 327.023 367.267 328.397 368.102C331.618 370.06 336.638 372.327 337.752 372.327C338.12 372.327 338.49 372.534 338.574 372.787C338.688 373.129 340.557 373.245 345.937 373.245C351.317 373.245 353.186 373.129 353.3 372.787C353.384 372.534 353.708 372.327 354.018 372.327C354.329 372.327 355.195 372.062 355.944 371.737C356.692 371.413 357.855 370.91 358.529 370.619C359.202 370.329 359.999 370.091 360.299 370.091C360.599 370.091 360.845 369.923 360.845 369.719C360.845 369.514 361.071 369.346 361.347 369.346C361.622 369.346 362.152 369.01 362.523 368.6C362.893 368.19 363.343 367.855 363.522 367.855C363.89 367.855 366.033 365.99 367.592 364.314C368.164 363.699 369.312 362.469 370.143 361.581C370.974 360.693 371.654 359.74 371.654 359.465C371.654 359.189 371.864 358.739 372.12 358.465C372.86 357.673 373.794 355.554 374.47 353.133C374.813 351.903 375.242 350.511 375.424 350.041C375.856 348.918 375.846 347.356 375.406 347.356C375.215 347.356 374.952 347.693 374.821 348.105C374.465 349.227 371.971 353.355 370.908 354.581C369.378 356.347 366.81 358.691 365.847 359.201C365.351 359.464 364.943 359.8 364.941 359.947C364.938 360.094 364.268 360.535 363.45 360.927C362.632 361.318 361.963 361.779 361.963 361.952C361.963 362.124 361.558 362.264 361.063 362.264C360.567 362.264 360.106 362.421 360.038 362.613C359.969 362.805 358.488 363.343 356.746 363.81C351.476 365.221 344.338 364.877 340.147 363.01C337.056 361.633 335.874 360.991 335.874 360.689C335.874 360.531 335.626 360.401 335.323 360.401C335.02 360.401 333.636 359.262 332.248 357.869C329.462 355.073 328.559 353.967 327.926 352.574C327.694 352.062 327.404 351.558 327.283 351.456C327.162 351.353 326.573 350.095 325.974 348.661C324.916 346.126 324.885 345.871 324.882 339.716C324.879 333.88 324.945 333.249 325.718 331.726C326.179 330.816 326.556 329.829 326.556 329.533C326.556 328.932 328.038 326.367 328.497 326.174C328.659 326.105 328.793 325.826 328.793 325.553C328.793 325.28 328.92 325 329.075 324.931C329.23 324.863 329.943 324.056 330.659 323.137C332.233 321.116 333.169 320.148 333.548 320.148C333.704 320.148 334.249 319.762 334.76 319.289C335.27 318.817 336.191 318.169 336.806 317.85C337.421 317.53 338.427 316.995 339.042 316.661C339.657 316.327 340.454 316.052 340.812 316.051C341.171 316.05 341.465 315.881 341.465 315.676C341.465 315.471 341.85 315.303 342.322 315.303C342.793 315.303 343.344 315.138 343.546 314.937C344.091 314.391 348.235 313.749 352.459 313.556L356.186 313.385L354.696 312.68C353.876 312.292 352.995 311.969 352.739 311.962C352.483 311.955 352.273 311.805 352.273 311.63C352.273 311.454 350.806 311.132 349.012 310.915C347.218 310.697 345.331 310.43 344.819 310.322C344.306 310.213 343.441 310.265 342.896 310.436ZM233.275 310.687C233.122 310.841 232.202 311.091 231.231 311.244C229.132 311.574 226.187 312.4 225.925 312.731C225.823 312.861 225.32 313.096 224.807 313.253C224.295 313.411 223.792 313.643 223.689 313.77C223.587 313.896 222.874 314.29 222.105 314.645C221.337 315 220.708 315.462 220.708 315.67C220.708 315.878 220.463 316.049 220.165 316.049C219.867 316.049 219.204 316.468 218.692 316.98C218.179 317.493 217.652 317.912 217.521 317.912C217.056 317.912 213.999 321.05 213.999 321.527C213.999 321.794 213.845 322.012 213.657 322.012C213.468 322.012 212.932 322.641 212.465 323.41C211.998 324.179 211.523 324.891 211.41 324.994C210.988 325.376 209.899 327.682 209.899 328.192C209.899 328.483 209.739 328.721 209.543 328.721C209.347 328.721 209.077 329.31 208.942 330.029C208.807 330.749 208.548 331.43 208.366 331.542C208.184 331.654 208.035 332.206 208.035 332.768C208.035 333.33 207.826 333.999 207.57 334.255C207.234 334.59 207.104 336.462 207.104 340.945C207.104 347.101 207.33 348.679 208.643 351.699C208.924 352.344 209.154 353.225 209.154 353.655C209.154 354.086 209.321 354.438 209.526 354.438C209.731 354.438 209.899 354.66 209.899 354.933C209.899 355.473 212.127 359.02 212.593 359.22C212.751 359.289 212.881 359.553 212.881 359.808C212.881 360.062 213.3 360.665 213.812 361.146C214.325 361.628 214.744 362.244 214.744 362.516C214.744 362.787 214.996 363.01 215.303 363.01C215.611 363.01 215.862 363.178 215.862 363.383C215.862 363.761 217.198 365.246 217.539 365.246C217.641 365.246 218.346 365.833 219.107 366.551C219.868 367.268 220.597 367.855 220.728 367.855C220.859 367.855 221.353 368.19 221.826 368.6C222.298 369.01 222.911 369.346 223.187 369.346C223.463 369.346 223.689 369.514 223.689 369.719C223.689 369.923 223.899 370.092 224.155 370.093C224.411 370.095 225.044 370.317 225.561 370.586C226.078 370.856 227.839 371.562 229.474 372.155C232.265 373.167 232.803 373.235 238.225 373.247C243.667 373.258 244.196 373.194 247.356 372.141C249.201 371.526 250.796 370.91 250.901 370.773C251.005 370.635 251.55 370.408 252.112 370.267C252.673 370.126 253.133 369.879 253.133 369.719C253.133 369.558 253.552 369.321 254.065 369.193C254.577 369.064 254.997 368.794 254.997 368.593C254.997 368.392 255.253 368.228 255.567 368.228C255.881 368.228 256.235 367.976 256.352 367.669C256.471 367.361 256.74 367.11 256.95 367.11C257.161 367.11 257.718 366.732 258.188 366.271C258.658 365.81 259.22 365.265 259.439 365.06C259.657 364.855 260.27 364.142 260.803 363.476C261.336 362.81 262.008 362.264 262.298 362.264C262.587 362.264 262.823 361.949 262.823 361.564C262.823 361.18 263.075 360.656 263.382 360.401C263.69 360.146 263.942 359.64 263.942 359.277C263.942 358.914 264.193 358.521 264.501 358.402C264.808 358.285 265.06 357.963 265.06 357.687C265.06 357.411 265.467 356.342 265.964 355.31C266.836 353.503 268.243 347.806 267.902 347.465C267.81 347.373 267.042 348.485 266.195 349.936C265.347 351.387 264.494 352.574 264.298 352.574C264.102 352.574 263.939 352.867 263.935 353.226C263.931 353.585 263.512 354.274 263.003 354.756C262.494 355.239 262.078 355.784 262.078 355.967C262.078 356.151 261.826 356.301 261.519 356.301C261.211 356.301 260.96 356.553 260.96 356.86C260.96 357.168 260.745 357.419 260.483 357.419C260.221 357.419 259.765 357.755 259.469 358.165C259.173 358.575 258.801 358.91 258.641 358.91C258.482 358.91 258.027 359.203 257.632 359.562C256.282 360.787 255.903 361.025 254.891 361.279C254.334 361.419 253.878 361.698 253.878 361.899C253.878 362.1 253.459 362.264 252.947 362.264C252.434 362.264 252.015 362.407 252.015 362.582C252.015 363.168 244.442 364.873 241.84 364.873C239.964 364.873 234.741 363.912 233.757 363.385C233.371 363.179 232.709 363.01 232.286 363.01C231.863 363.01 231.516 362.842 231.516 362.637C231.516 362.432 231.097 362.264 230.584 362.264C230.072 362.264 229.652 362.1 229.652 361.899C229.652 361.698 229.209 361.422 228.667 361.286C228.125 361.15 227.043 360.434 226.263 359.695C225.484 358.955 224.334 357.961 223.709 357.484C223.083 357.007 222.571 356.454 222.571 356.255C222.571 356.056 222.152 355.504 221.639 355.029C221.127 354.554 220.708 353.916 220.708 353.611C220.708 353.305 220.288 352.603 219.776 352.05C219.263 351.497 218.844 350.953 218.844 350.841C218.844 350.729 218.608 350.108 218.319 349.462C218.03 348.816 217.687 347.785 217.557 347.17C217.427 346.555 217.167 345.381 216.98 344.561C216.525 342.564 216.548 336.768 217.02 334.684C217.228 333.762 217.496 332.504 217.614 331.889C217.731 331.274 218.057 330.44 218.336 330.035C218.616 329.631 218.844 329.002 218.844 328.638C218.844 328.273 218.97 327.973 219.124 327.971C219.277 327.969 219.724 327.298 220.115 326.48C220.507 325.663 220.968 324.994 221.14 324.994C221.312 324.994 221.453 324.779 221.453 324.518C221.453 323.93 226.342 319.03 226.929 319.03C227.163 319.03 227.41 318.905 227.479 318.751C227.641 318.386 229.584 317.086 230.771 316.547C233.578 315.274 234.481 314.931 235.02 314.931C235.348 314.931 235.616 314.78 235.616 314.597C235.616 314.136 237.978 313.824 243.377 313.574C248.238 313.349 248.358 313.226 244.925 311.985C242.104 310.965 233.91 310.053 233.275 310.687ZM450.481 311.013C445.254 312.203 442.746 313.062 442.275 313.823C442.152 314.022 441.726 314.185 441.328 314.185C440.93 314.185 440.605 314.342 440.605 314.533C440.605 314.724 440.227 314.999 439.766 315.144C439.305 315.288 438.58 315.779 438.156 316.233C437.732 316.688 437.211 317.126 436.998 317.206C436.344 317.455 432.778 320.8 432.778 321.165C432.778 321.355 432.358 321.903 431.846 322.385C431.333 322.866 430.914 323.482 430.914 323.754C430.914 324.026 430.758 324.248 430.566 324.248C430.375 324.248 430.102 324.618 429.958 325.069C429.815 325.521 429.469 326.12 429.188 326.401C428.908 326.681 428.678 327.156 428.678 327.456C428.678 327.756 428.444 328.373 428.159 328.827C426.729 331.101 425.324 337.229 425.324 341.186C425.324 343.949 426 348.447 426.502 349.015C426.674 349.21 426.814 349.806 426.814 350.341C426.814 350.876 427.061 351.639 427.362 352.037C427.663 352.435 427.914 353.138 427.921 353.599C427.927 354.06 428.1 354.438 428.305 354.438C428.51 354.438 428.678 354.75 428.678 355.133C428.678 355.515 429.013 356.254 429.423 356.776C429.833 357.297 430.169 357.906 430.169 358.13C430.169 358.354 430.337 358.537 430.542 358.537C430.746 358.537 430.917 358.747 430.92 359.003C430.931 359.822 436.391 365.991 437.106 365.991C437.39 365.991 437.623 366.145 437.623 366.334C437.623 366.522 438.252 367.058 439.021 367.525C439.789 367.992 440.502 368.467 440.605 368.581C440.879 368.884 442.197 369.689 442.841 369.947C443.148 370.07 443.928 370.405 444.574 370.69C445.22 370.976 445.984 371.209 446.27 371.209C446.557 371.209 446.953 371.37 447.149 371.567C448.075 372.493 452.467 373.22 457.19 373.229C462.188 373.238 464.09 372.885 468.371 371.15C469.396 370.734 470.57 370.299 470.98 370.183C471.39 370.065 472.095 369.578 472.546 369.099C472.998 368.62 473.587 368.228 473.855 368.228C474.123 368.228 474.794 367.808 475.347 367.296C475.9 366.783 476.425 366.364 476.515 366.364C476.896 366.364 480.857 362.076 480.857 361.663C480.857 361.413 480.984 361.153 481.138 361.084C481.805 360.79 484.523 355.992 484.746 354.717C484.88 353.949 485.129 353.319 485.298 353.319C485.468 353.319 485.718 352.479 485.854 351.451C485.99 350.424 486.197 349.334 486.314 349.029C486.431 348.724 486.342 348.474 486.115 348.474C485.888 348.474 485.702 348.726 485.702 349.033C485.702 349.341 485.554 349.592 485.373 349.592C485.192 349.592 484.945 349.886 484.825 350.245C484.513 351.173 483.732 352.337 483.186 352.686C482.93 352.85 482.72 353.198 482.72 353.46C482.72 354.081 477.519 359.283 476.898 359.283C476.636 359.283 476.288 359.493 476.124 359.749C475.775 360.294 474.61 361.075 473.682 361.387C473.323 361.507 473.03 361.754 473.03 361.935C473.03 362.116 472.821 362.265 472.564 362.266C472.308 362.267 471.092 362.682 469.862 363.189C468.632 363.696 467.217 364.114 466.718 364.119C466.219 364.124 464.754 364.393 463.463 364.716C461.329 365.252 460.808 365.252 457.72 364.722C453.607 364.015 449.388 362.795 448.709 362.116C448.435 361.842 447.799 361.487 447.296 361.329C446.793 361.17 446.11 360.728 445.779 360.348C445.447 359.967 445.004 359.655 444.793 359.655C444.197 359.655 439.971 355.376 439.688 354.487C439.55 354.05 439.293 353.692 439.118 353.692C438.943 353.692 438.69 353.189 438.555 352.574C438.42 351.959 438.194 351.456 438.054 351.456C437.775 351.456 436.505 348.699 436.505 348.094C436.505 347.888 436.349 347.427 436.159 347.071C435.356 345.569 434.993 340.079 435.456 336.417C435.706 334.439 436.044 332.821 436.207 332.821C436.371 332.821 436.505 332.455 436.505 332.009C436.505 330.989 439.381 324.994 439.87 324.994C440.069 324.994 440.236 324.784 440.24 324.528C440.248 324.092 443.803 320.148 444.188 320.148C444.284 320.148 445.237 319.516 446.304 318.743C447.372 317.97 448.916 317.005 449.736 316.6C450.556 316.194 451.311 315.764 451.413 315.644C451.621 315.4 454.087 314.687 456.631 314.135C457.553 313.934 460.237 313.64 462.594 313.48C464.952 313.32 466.503 313.162 466.042 313.129C465.581 313.095 465.203 312.918 465.203 312.736C465.203 312.554 464.574 312.287 463.806 312.143C463.037 312 462.24 311.748 462.035 311.585C460.997 310.756 453.286 310.375 450.481 311.013ZM121.661 311.08C120.585 311.169 119.704 311.382 119.704 311.553C119.704 311.725 118.949 311.978 118.027 312.116C117.104 312.254 116.35 312.525 116.35 312.717C116.35 312.91 116.104 313.067 115.803 313.067C115.047 313.067 112.623 314.256 112.623 314.627C112.623 314.794 112.383 314.931 112.09 314.931C111.797 314.931 111.336 315.14 111.065 315.396C110.794 315.653 109.91 316.358 109.1 316.964C106.907 318.603 102.932 322.737 102.932 323.377C102.932 323.51 102.535 324.14 102.049 324.776C101.12 325.995 98.8324 330.647 98.8324 331.319C98.8324 331.535 98.6766 332.004 98.4861 332.36C97.9289 333.4 96.9681 339.158 96.9685 341.453C96.9688 344.774 98.1954 350.414 99.6296 353.692C100.209 355.017 100.584 355.73 102.823 359.762C103.372 360.751 109.68 367.11 110.112 367.11C110.283 367.11 110.791 367.505 111.243 367.99C111.694 368.474 112.441 368.988 112.902 369.133C113.363 369.278 113.741 369.552 113.741 369.743C113.741 369.935 114.146 370.091 114.641 370.091C115.137 370.091 115.598 370.221 115.666 370.378C115.961 371.06 121.478 372.802 125 373.324C128.498 373.844 129.187 373.839 132.876 373.273C136.595 372.702 138.612 372.142 139.085 371.55C139.187 371.422 139.9 371.201 140.669 371.06C141.438 370.919 142.066 370.656 142.066 370.477C142.066 370.297 142.57 370.04 143.184 369.905C143.799 369.77 144.303 369.505 144.303 369.316C144.303 369.127 144.514 368.973 144.772 368.973C145.031 368.973 145.694 368.554 146.247 368.041C146.799 367.529 147.385 367.109 147.547 367.109C147.985 367.107 152.875 361.992 152.875 361.536C152.875 361.322 153.039 361.146 153.24 361.146C153.441 361.146 153.711 360.727 153.84 360.214C153.968 359.702 154.196 359.283 154.346 359.283C154.743 359.283 156.578 355.404 156.855 353.979C156.985 353.309 157.238 352.664 157.416 352.546C157.594 352.428 157.821 351.422 157.919 350.31C158.019 349.198 157.989 348.539 157.854 348.847C157.719 349.154 157.506 349.49 157.381 349.592C157.256 349.695 156.824 350.408 156.42 351.176C156.017 351.945 155.562 352.574 155.409 352.574C155.255 352.574 154.891 353.035 154.598 353.599C153.95 354.848 149.723 359.121 148.309 359.956C147.746 360.289 147.284 360.693 147.284 360.854C147.284 361.015 147.088 361.146 146.848 361.146C146.608 361.146 146.146 361.374 145.823 361.651C145.499 361.929 144.354 362.466 143.278 362.843C142.202 363.221 141.321 363.674 141.321 363.851C141.321 364.027 141.191 364.091 141.031 363.993C140.871 363.894 139.655 364.081 138.328 364.409C135.209 365.179 129.498 365.18 126.599 364.411C122.778 363.397 121.602 362.995 121.373 362.623C121.251 362.426 120.825 362.264 120.427 362.264C120.029 362.264 119.704 362.135 119.704 361.976C119.704 361.818 119.11 361.369 118.384 360.978C115.593 359.474 110.365 353.545 109.781 351.22C109.66 350.735 109.411 350.338 109.228 350.338C109.045 350.338 108.895 349.991 108.895 349.568C108.895 349.144 108.718 348.466 108.5 348.06C108.283 347.654 107.847 345.61 107.532 343.518C106.929 339.509 107.135 336.861 108.37 332.75C108.659 331.79 108.895 330.741 108.895 330.421C108.895 330.101 109.045 329.839 109.228 329.839C109.411 329.839 109.675 329.378 109.816 328.814C110.066 327.811 111.743 325.302 112.328 325.056C112.49 324.987 112.627 324.736 112.633 324.497C112.639 324.258 113.142 323.573 113.751 322.975C114.36 322.377 114.859 321.748 114.859 321.577C114.859 321.406 115.11 321.267 115.418 321.267C115.725 321.267 115.977 321.109 115.977 320.917C115.977 320.283 122.329 316.372 123.729 316.145C124.484 316.022 125.304 315.72 125.552 315.472C125.799 315.225 127.142 314.828 128.536 314.592C129.931 314.355 131.939 313.976 132.998 313.748C134.058 313.521 135.6 313.443 136.424 313.575C137.293 313.714 138.018 313.657 138.153 313.441C138.279 313.235 138.122 313.067 137.802 313.067C137.483 313.067 137.221 312.907 137.221 312.711C137.221 312.515 136.592 312.255 135.824 312.132C135.055 312.009 134.114 311.736 133.732 311.527C132.983 311.115 124.853 310.814 121.661 311.08Z" fill="#3E4095"/>
</svg>
